<mxfile host="app.diagrams.net" agent="Mozilla/5.0 (Windows NT 10.0; Win64; x64) AppleWebKit/537.36 (KHTML, like Gecko) Chrome/136.0.0.0 Safari/537.36 Edg/136.0.0.0" version="27.0.6">
  <diagram name="PÃ¡gina-1" id="Pt_wcjanGxDY51D9bgmA">
    <mxGraphModel dx="2852" dy="2833" grid="1" gridSize="10" guides="1" tooltips="1" connect="1" arrows="1" fold="1" page="1" pageScale="1" pageWidth="827" pageHeight="1169" math="0" shadow="0">
      <root>
        <mxCell id="0" />
        <mxCell id="1" parent="0" />
        <mxCell id="kbA2GIvJsu1keDuxp5NO-2" value="&#xa;&lt;span style=&quot;color: rgb(255, 255, 255); font-family: Helvetica; font-size: 28px; font-style: normal; font-variant-ligatures: normal; font-variant-caps: normal; font-weight: 400; letter-spacing: normal; orphans: 2; text-align: center; text-indent: 0px; text-transform: none; widows: 2; word-spacing: 0px; -webkit-text-stroke-width: 0px; white-space: normal; background-color: rgb(236, 236, 236); text-decoration-thickness: initial; text-decoration-style: initial; text-decoration-color: initial; display: inline !important; float: none;&quot;&gt;DevPC&lt;/span&gt;&#xa;&#xa;" style="rounded=0;whiteSpace=wrap;html=1;" parent="1" vertex="1">
          <mxGeometry x="230" y="-440" width="1240" height="300" as="geometry" />
        </mxCell>
        <mxCell id="kbA2GIvJsu1keDuxp5NO-1" value="" style="rounded=0;whiteSpace=wrap;html=1;" parent="1" vertex="1">
          <mxGeometry x="230" y="-130" width="1240" height="530" as="geometry" />
        </mxCell>
        <mxCell id="PtXCarbpcVjoQPvpsZYC-3" value="" style="rounded=0;whiteSpace=wrap;html=1;fillColor=#dae8fc;strokeColor=#6c8ebf;movable=0;resizable=0;rotatable=0;deletable=0;editable=0;locked=1;connectable=0;" parent="1" vertex="1">
          <mxGeometry x="250" y="30" width="800" height="310" as="geometry" />
        </mxCell>
        <mxCell id="PtXCarbpcVjoQPvpsZYC-7" value="&lt;font style=&quot;font-size: 18px;&quot;&gt;RabbitMQ&lt;/font&gt;&lt;div&gt;&lt;br&gt;&lt;/div&gt;&lt;div&gt;&lt;br&gt;&lt;/div&gt;&lt;div&gt;&lt;br&gt;&lt;/div&gt;&lt;div&gt;&lt;br&gt;&lt;/div&gt;&lt;div&gt;&lt;br&gt;&lt;/div&gt;&lt;div&gt;&lt;br&gt;&lt;/div&gt;" style="rounded=1;whiteSpace=wrap;html=1;arcSize=7;fillColor=#ffe6cc;strokeColor=#d79b00;movable=1;resizable=1;rotatable=1;deletable=1;editable=1;locked=0;connectable=1;" parent="1" vertex="1">
          <mxGeometry x="250" y="-110" width="800" height="130" as="geometry" />
        </mxCell>
        <mxCell id="PtXCarbpcVjoQPvpsZYC-4" value="ControlPC" style="rounded=0;whiteSpace=wrap;html=1;fillColor=#37392E;fontSize=28;fontStyle=0;fontColor=#FFFFFF;" parent="1" vertex="1">
          <mxGeometry x="250" y="320" width="800" height="60" as="geometry" />
        </mxCell>
        <mxCell id="PtXCarbpcVjoQPvpsZYC-5" value="" style="rounded=0;whiteSpace=wrap;html=1;fillColor=#d5e8d4;strokeColor=#82b366;" parent="1" vertex="1">
          <mxGeometry x="250" y="-360" width="800" height="200" as="geometry" />
        </mxCell>
        <mxCell id="PtXCarbpcVjoQPvpsZYC-6" value="DevPC" style="rounded=0;whiteSpace=wrap;html=1;fillColor=#37392E;fontSize=28;fontStyle=0;fontColor=#FFFFFF;" parent="1" vertex="1">
          <mxGeometry x="250" y="-420" width="800" height="60" as="geometry" />
        </mxCell>
        <mxCell id="PtXCarbpcVjoQPvpsZYC-8" value="" style="rounded=0;whiteSpace=wrap;html=1;" parent="1" vertex="1">
          <mxGeometry x="1070" y="30" width="380" height="290" as="geometry" />
        </mxCell>
        <mxCell id="PtXCarbpcVjoQPvpsZYC-10" value="Monitoring" style="rounded=0;whiteSpace=wrap;html=1;fillColor=#37392E;fontSize=28;fontStyle=0;fontColor=#FFFFFF;" parent="1" vertex="1">
          <mxGeometry x="1070" y="320" width="380" height="60" as="geometry" />
        </mxCell>
        <mxCell id="PtXCarbpcVjoQPvpsZYC-11" value="AMQP" style="rounded=1;whiteSpace=wrap;html=1;fontStyle=1;fontSize=14;" parent="1" vertex="1">
          <mxGeometry x="493" y="-70" width="140" height="50" as="geometry" />
        </mxCell>
        <mxCell id="PtXCarbpcVjoQPvpsZYC-12" value="API" style="rounded=1;whiteSpace=wrap;html=1;fontStyle=1;fontSize=14;" parent="1" vertex="1">
          <mxGeometry x="653" y="-70" width="140" height="50" as="geometry" />
        </mxCell>
        <mxCell id="PtXCarbpcVjoQPvpsZYC-13" value="Admin Portal" style="rounded=1;whiteSpace=wrap;html=1;fontStyle=1;fontSize=14;" parent="1" vertex="1">
          <mxGeometry x="877" y="-70" width="140" height="50" as="geometry" />
        </mxCell>
        <mxCell id="PtXCarbpcVjoQPvpsZYC-14" value="API" style="rounded=1;whiteSpace=wrap;html=1;fontStyle=1;fontSize=14;" parent="1" vertex="1">
          <mxGeometry x="848" y="34" width="140" height="50" as="geometry" />
        </mxCell>
        <mxCell id="PtXCarbpcVjoQPvpsZYC-15" value="" style="rhombus;whiteSpace=wrap;html=1;fillColor=#fff2cc;strokeColor=#d6b656;" parent="1" vertex="1">
          <mxGeometry x="283" y="110" width="130" height="130" as="geometry" />
        </mxCell>
        <mxCell id="PtXCarbpcVjoQPvpsZYC-18" value="" style="rhombus;whiteSpace=wrap;html=1;fillColor=#fff2cc;strokeColor=#d6b656;" parent="1" vertex="1">
          <mxGeometry x="313" y="110" width="130" height="130" as="geometry" />
        </mxCell>
        <mxCell id="PtXCarbpcVjoQPvpsZYC-19" value="" style="rhombus;whiteSpace=wrap;html=1;fillColor=#fff2cc;strokeColor=#d6b656;" parent="1" vertex="1">
          <mxGeometry x="343" y="110" width="130" height="130" as="geometry" />
        </mxCell>
        <mxCell id="PtXCarbpcVjoQPvpsZYC-20" value="" style="rhombus;whiteSpace=wrap;html=1;fillColor=#f8cecc;strokeColor=#b85450;" parent="1" vertex="1">
          <mxGeometry x="587" y="110" width="130" height="130" as="geometry" />
        </mxCell>
        <mxCell id="PtXCarbpcVjoQPvpsZYC-21" value="" style="rhombus;whiteSpace=wrap;html=1;fillColor=#d5e8d4;strokeColor=#82b366;" parent="1" vertex="1">
          <mxGeometry x="850" y="110" width="130" height="130" as="geometry" />
        </mxCell>
        <mxCell id="PtXCarbpcVjoQPvpsZYC-22" value="Evalboard&lt;div&gt;Consumers&lt;/div&gt;" style="text;html=1;align=center;verticalAlign=middle;whiteSpace=wrap;rounded=0;fontSize=14;fontStyle=1" parent="1" vertex="1">
          <mxGeometry x="323" y="260" width="110" height="40" as="geometry" />
        </mxCell>
        <mxCell id="PtXCarbpcVjoQPvpsZYC-25" value="ResultsWorker" style="text;html=1;align=center;verticalAlign=middle;whiteSpace=wrap;rounded=0;fontSize=14;fontStyle=1" parent="1" vertex="1">
          <mxGeometry x="595" y="250" width="110" height="40" as="geometry" />
        </mxCell>
        <mxCell id="PtXCarbpcVjoQPvpsZYC-26" value="Watchdog" style="text;html=1;align=center;verticalAlign=middle;whiteSpace=wrap;rounded=0;fontSize=14;fontStyle=1" parent="1" vertex="1">
          <mxGeometry x="860" y="250" width="110" height="40" as="geometry" />
        </mxCell>
        <mxCell id="PtXCarbpcVjoQPvpsZYC-34" style="edgeStyle=orthogonalEdgeStyle;rounded=0;orthogonalLoop=1;jettySize=auto;html=1;exitX=0.5;exitY=1;exitDx=0;exitDy=0;entryX=0.407;entryY=-0.01;entryDx=0;entryDy=0;entryPerimeter=0;flowAnimation=1;strokeColor=#D00000;dashed=1;strokeWidth=2;" parent="1" source="PtXCarbpcVjoQPvpsZYC-30" target="PtXCarbpcVjoQPvpsZYC-11" edge="1">
          <mxGeometry relative="1" as="geometry">
            <mxPoint x="440" y="-200" as="sourcePoint" />
            <mxPoint x="543" y="-70" as="targetPoint" />
            <Array as="points">
              <mxPoint x="460" y="-170" />
              <mxPoint x="550" y="-170" />
            </Array>
          </mxGeometry>
        </mxCell>
        <mxCell id="PtXCarbpcVjoQPvpsZYC-30" value="Prepare PiL" style="rounded=1;whiteSpace=wrap;html=1;fontStyle=1;fontSize=14;" parent="1" vertex="1">
          <mxGeometry x="390" y="-280" width="140" height="40" as="geometry" />
        </mxCell>
        <mxCell id="PtXCarbpcVjoQPvpsZYC-31" value="Transmission" style="rounded=1;whiteSpace=wrap;html=1;fontStyle=1;fontSize=14;" parent="1" vertex="1">
          <mxGeometry x="575.5" y="-280" width="140" height="40" as="geometry" />
        </mxCell>
        <mxCell id="PtXCarbpcVjoQPvpsZYC-32" value="Finalize PiL" style="rounded=1;whiteSpace=wrap;html=1;fontStyle=1;fontSize=14;" parent="1" vertex="1">
          <mxGeometry x="765.5" y="-280" width="140" height="40" as="geometry" />
        </mxCell>
        <mxCell id="PtXCarbpcVjoQPvpsZYC-35" style="edgeStyle=orthogonalEdgeStyle;rounded=0;orthogonalLoop=1;jettySize=auto;html=1;entryX=0.5;entryY=0;entryDx=0;entryDy=0;strokeColor=#D00000;flowAnimation=1;dashed=1;strokeWidth=2;" parent="1" source="PtXCarbpcVjoQPvpsZYC-31" target="PtXCarbpcVjoQPvpsZYC-11" edge="1">
          <mxGeometry relative="1" as="geometry">
            <mxPoint x="641.0116279069767" y="-200" as="sourcePoint" />
            <mxPoint x="575.5" y="-70" as="targetPoint" />
            <Array as="points">
              <mxPoint x="646" y="-170" />
              <mxPoint x="563" y="-170" />
            </Array>
          </mxGeometry>
        </mxCell>
        <mxCell id="PtXCarbpcVjoQPvpsZYC-36" style="edgeStyle=orthogonalEdgeStyle;rounded=0;orthogonalLoop=1;jettySize=auto;html=1;exitX=0.5;exitY=1;exitDx=0;exitDy=0;entryX=0.588;entryY=0.018;entryDx=0;entryDy=0;entryPerimeter=0;strokeColor=#D00000;flowAnimation=1;dashed=1;strokeWidth=2;" parent="1" source="PtXCarbpcVjoQPvpsZYC-32" edge="1">
          <mxGeometry relative="1" as="geometry">
            <mxPoint x="835.7" y="-200.72" as="sourcePoint" />
            <mxPoint x="575.5200000000001" y="-69.99999999999997" as="targetPoint" />
            <Array as="points">
              <mxPoint x="836" y="-170" />
              <mxPoint x="576" y="-170" />
            </Array>
          </mxGeometry>
        </mxCell>
        <mxCell id="PtXCarbpcVjoQPvpsZYC-38" style="rounded=0;orthogonalLoop=1;jettySize=auto;html=1;exitX=0.6;exitY=1.025;exitDx=0;exitDy=0;flowAnimation=1;strokeColor=#009900;dashed=1;entryX=0.001;entryY=0.576;entryDx=0;entryDy=0;entryPerimeter=0;strokeWidth=2;exitPerimeter=0;edgeStyle=orthogonalEdgeStyle;" parent="1" source="PtXCarbpcVjoQPvpsZYC-30" target="PtXCarbpcVjoQPvpsZYC-14" edge="1">
          <mxGeometry relative="1" as="geometry">
            <mxPoint x="473" y="-200" as="sourcePoint" />
            <mxPoint x="840" y="70" as="targetPoint" />
            <Array as="points">
              <mxPoint x="474" y="-180" />
              <mxPoint x="810" y="-180" />
              <mxPoint x="810" y="62" />
            </Array>
          </mxGeometry>
        </mxCell>
        <mxCell id="PtXCarbpcVjoQPvpsZYC-42" value="" style="endArrow=classic;html=1;rounded=0;exitX=0.5;exitY=0;exitDx=0;exitDy=0;entryX=0.387;entryY=1.002;entryDx=0;entryDy=0;entryPerimeter=0;strokeColor=#D00000;flowAnimation=1;dashed=1;strokeWidth=2;edgeStyle=orthogonalEdgeStyle;" parent="1" source="PtXCarbpcVjoQPvpsZYC-18" target="PtXCarbpcVjoQPvpsZYC-11" edge="1">
          <mxGeometry width="50" height="50" relative="1" as="geometry">
            <mxPoint x="480" y="70" as="sourcePoint" />
            <mxPoint x="530" y="20" as="targetPoint" />
          </mxGeometry>
        </mxCell>
        <mxCell id="PtXCarbpcVjoQPvpsZYC-44" value="" style="endArrow=classic;html=1;rounded=0;exitX=0.352;exitY=0.148;exitDx=0;exitDy=0;strokeColor=#D00000;flowAnimation=1;dashed=1;exitPerimeter=0;strokeWidth=2;" parent="1" source="PtXCarbpcVjoQPvpsZYC-20" edge="1">
          <mxGeometry width="50" height="50" relative="1" as="geometry">
            <mxPoint x="633.0000000000001" y="124.95000000000027" as="sourcePoint" />
            <mxPoint x="560" y="-20" as="targetPoint" />
            <Array as="points">
              <mxPoint x="633" y="110" />
              <mxPoint x="560" y="110" />
            </Array>
          </mxGeometry>
        </mxCell>
        <mxCell id="PtXCarbpcVjoQPvpsZYC-46" value="" style="endArrow=classic;html=1;rounded=0;exitX=0;exitY=0;exitDx=0;exitDy=0;strokeColor=#D00000;flowAnimation=1;dashed=1;entryX=0.569;entryY=1;entryDx=0;entryDy=0;entryPerimeter=0;strokeWidth=2;edgeStyle=orthogonalEdgeStyle;" parent="1" target="PtXCarbpcVjoQPvpsZYC-11" edge="1">
          <mxGeometry width="50" height="50" relative="1" as="geometry">
            <mxPoint x="885.34" y="142.62" as="sourcePoint" />
            <mxPoint x="575.5" y="-29.99999999999989" as="targetPoint" />
            <Array as="points">
              <mxPoint x="885" y="100" />
              <mxPoint x="573" y="100" />
            </Array>
          </mxGeometry>
        </mxCell>
        <mxCell id="PtXCarbpcVjoQPvpsZYC-47" value="" style="endArrow=classic;html=1;rounded=0;entryX=0.406;entryY=0.999;entryDx=0;entryDy=0;entryPerimeter=0;strokeColor=#1971C2;flowAnimation=1;dashed=1;exitX=0.641;exitY=0.141;exitDx=0;exitDy=0;exitPerimeter=0;strokeWidth=2;" parent="1" source="PtXCarbpcVjoQPvpsZYC-20" target="PtXCarbpcVjoQPvpsZYC-12" edge="1">
          <mxGeometry width="50" height="50" relative="1" as="geometry">
            <mxPoint x="660" y="118" as="sourcePoint" />
            <mxPoint x="831" y="-32" as="targetPoint" />
            <Array as="points">
              <mxPoint x="670" y="40" />
              <mxPoint x="710" y="40" />
            </Array>
          </mxGeometry>
        </mxCell>
        <mxCell id="PtXCarbpcVjoQPvpsZYC-48" value="" style="endArrow=classic;html=1;rounded=0;strokeColor=#1971C2;flowAnimation=1;dashed=1;exitX=0.317;exitY=0.189;exitDx=0;exitDy=0;exitPerimeter=0;strokeWidth=2;" parent="1" source="PtXCarbpcVjoQPvpsZYC-21" edge="1">
          <mxGeometry width="50" height="50" relative="1" as="geometry">
            <mxPoint x="830" y="130" as="sourcePoint" />
            <mxPoint x="720" y="-20" as="targetPoint" />
            <Array as="points">
              <mxPoint x="891" y="90" />
              <mxPoint x="770" y="90" />
              <mxPoint x="770" y="40" />
              <mxPoint x="720" y="40" />
            </Array>
          </mxGeometry>
        </mxCell>
        <mxCell id="0mHGIIhajZ2bJ3hv1sZ5-1" value="" style="shape=image;verticalLabelPosition=bottom;labelBackgroundColor=default;verticalAlign=top;aspect=fixed;imageAspect=0;editableCssRules=.*;image=data:image/svg+xml,PHN2ZyB4bWxuczp4bGluaz0iaHR0cDovL3d3dy53My5vcmcvMTk5OS94bGluayIgeG1sbnM9Imh0dHA6Ly93d3cudzMub3JnLzIwMDAvc3ZnIiB3aWR0aD0iMjU2IiB2aWV3Qm94PSIwLjAwMDAwMzgxNDY5NzI2NTYyNSAtMC4wMDAwMDc2MjkzOTQ1MzEyNSAyNTYgMjc4LjE5ODQ4NjMyODEyNSIgcHJlc2VydmVBc3BlY3RSYXRpbz0ieE1pZFlNaWQiIGhlaWdodD0iMjc4LjE5ODQ4NjMyODEyNSI+PGxpbmVhckdyYWRpZW50IHkyPSIzMS4xMzkwMDglIiB5MT0iMTIyLjQ1MDM1OCUiIHgyPSI0OS45OTQ3ODQlIiB4MT0iNDkuOTk0Nzg0JSIgaWQ9ImEiPjxzdG9wIHN0b3AtY29sb3I9IiNmZmYxMDAiIG9mZnNldD0iMCIvPjxzdG9wIHN0b3AtY29sb3I9IiNmMDVhMjgiIG9mZnNldD0iMSIvPjwvbGluZWFyR3JhZGllbnQ+PHBhdGggZmlsbD0idXJsKCNhKSIgZD0ibTI1NS41OTAxIDEyMi43NzUyMTVjLS40NTk4MzItNC42NzQ5NjItMS4yMjYyMTktMTAuMDM5NjcyLTIuNzU4OTkzLTE2LjAxNzQ5MS0xLjUzMjc3NS01LjkwMTE4MS0zLjgzMTkzNi0xMi40MTU0NzExLTcuMjA0MDM5LTE5LjE1OTY3NzctMy4zNzIxMDMtNi43NDQyMDY1LTcuNzQwNTEtMTMuNzE4MzI5Mi0xMy40MTE3NzUtMjAuNTM5MTc0NC0yLjIyMjUyMi0yLjY4MjM1NDktNC42NzQ5NjEtNS4yODgwNzExLTcuMjgwNjc3LTcuODE3MTQ4NSAzLjkwODU3NC0xNS41NTc2NTgzLTQuNzUxNi0yOS4wNDYwNzE0LTQuNzUxNi0yOS4wNDYwNzE0LTE0Ljk0NDU0OS0uOTE5NjY0NS0yNC40NDc3NDkgNC42NzQ5NjE0LTI3Ljk3MzEzIDcuMjA0MDM4OC0uNjEzMTA5LS4yMjk5MTYxLTEuMTQ5NTgtLjUzNjQ3MDktMS43NjI2OS0uNzY2Mzg3MS0yLjUyOTA3Ny0uOTk2MzAzMi01LjEzNDc5NC0xLjk5MjYwNjUtNy44OTM3ODctMi44MzU2MzIzLTIuNjgyMzU1LS44NDMwMjU4LTUuNDQxMzQ5LTEuNjA5NDEyOS04LjI3Njk4MS0yLjI5OTE2MTNzLTUuNjcxMjY0LTEuMjI2MjE5NC04LjU4MzUzNS0xLjY4NjA1MTZjLS41MzY0NzEtLjA3NjYzODctLjk5NjMwNC0uMTUzMjc3NS0xLjUzMjc3NS0uMjI5OTE2Mi02LjUxNDI5LTIwLjg0NTcyOTI4LTI1LjIxNDEzNS0yOS41ODI1NDIzLTI1LjIxNDEzNS0yOS41ODI1NDIzLTIwLjkyMjM2OSAxMy4yNTg0OTctMjQuODMwOTQzIDMxLjgwNTA2NDktMjQuODMwOTQzIDMxLjgwNTA2NDlzLS4wNzY2MzguMzgzMTkzNi0uMjI5OTE2IDEuMDcyOTQyYy0xLjE0OTU4MS4zMDY1NTQ4LTIuMjk5MTYxLjY4OTc0ODQtMy40NDg3NDIuOTk2MzAzMi0xLjYwOTQxMy40NTk4MzIzLTMuMjE4ODI2IDEuMDcyOTQyLTQuNzUxNiAxLjY4NjA1MTctMS42MDk0MTMuNjEzMTA5Ny0zLjE0MjE4NyAxLjIyNjIxOTMtNC43NTE2IDEuOTE1OTY3Ny0zLjE0MjE4NzEgMS4zNzk0OTY4LTYuMjg0Mzc0MyAyLjkxMjI3MS05LjM0OTkyMjcgNC41OTgzMjI3LTIuOTg4OTA5NyAxLjY4NjA1MTYtNS45MDExODA3IDMuNTI1MzgwNy04LjczNjgxMyA1LjQ0MTM0ODQtLjM4MzE5MzYtLjE1MzI3NzQtLjc2NjM4NzEtLjMwNjU1NDgtLjc2NjM4NzEtLjMwNjU1NDgtMjguOTY5NDMyNy0xMS4wMzU5NzQzLTU0LjY0MzQwMDggMi4yMjI1MjI2LTU0LjY0MzQwMDggMi4yMjI1MjI2LTIuMzc1OCAzMC44MDg3NjE3IDExLjU3MjQ0NTQgNTAuMTk4MzU1NSAxNC4zMzE0Mzg5IDUzLjcyMzczNjYtLjY4OTc0ODQgMS45MTU5NjctMS4zMDI4NTggMy44MzE5MzUtMS45MTU5Njc3IDUuNzQ3OTAzLTIuMTQ1ODgzOSA2Ljk3NDEyMy0zLjc1NTI5NjkgMTQuMTAxNTIzLTQuNzUxNjAwMSAyMS41MzU0NzgtLjE1MzI3NzQgMS4wNzI5NDItLjMwNjU1NDggMi4xNDU4ODQtLjM4MzE5MzUgMy4yMTg4MjUtMjYuODIzNTQ4OCAxMy4yNTg0OTctMzQuNzE3MzM2IDQwLjMxMTk2Mi0zNC43MTczMzYgNDAuMzExOTYyIDIyLjMwMTg2NDggMjUuNjczOTY4IDQ4LjM1OTAyNjUgMjcuMjgzMzgxIDQ4LjM1OTAyNjUgMjcuMjgzMzgxcy4wNzY2Mzg3LS4wNzY2MzguMDc2NjM4Ny0uMDc2NjM4YzMuMjk1NDY0NSA1LjkwMTE4IDcuMTI3NDAwMSAxMS40OTU4MDYgMTEuNDE5MTY3OSAxNi43ODM4NzcgMS44MzkzMjkgMi4yMjI1MjMgMy42Nzg2NTgxIDQuMjkxNzY4IDUuNjcxMjY0NiA2LjM2MTAxMy04LjEyMzcwMzQgMjMuMjk4MTY4IDEuMTQ5NTgwNiA0Mi42MTExMjMgMS4xNDk1ODA2IDQyLjYxMTEyMyAyNC44MzA5NDIzLjkxOTY2NSA0MS4xNTQ5ODc3LTEwLjg4MjY5NyA0NC42MDM3Mjk3LTEzLjU2NTA1MSAyLjQ1MjQzOS44NDMwMjUgNC45ODE1MTYgMS42MDk0MTMgNy41MTA1OTQgMi4yMjI1MjIgNy42NjM4NzEgMS45OTI2MDcgMTUuNDgxMDE5IDMuMTQyMTg3IDIzLjI5ODE2OCAzLjQ0ODc0MiAxLjkxNTk2Ny4wNzY2MzkgMy45MDg1NzQuMTUzMjc4IDUuODI0NTQyLjA3NjYzOWguOTE5NjY0LjYxMzExIDEuMjI2MjE5bDEuMjI2MjItLjA3NjYzOXYuMDc2NjM5YzExLjcyNTcyMiAxNi43MDcyMzkgMzIuMjY0ODk3IDE5LjA4MzAzOSAzMi4yNjQ4OTcgMTkuMDgzMDM5IDE0LjYzNzk5NC0xNS40MDQzODEgMTUuNDgxMDE5LTMwLjczMjEyMyAxNS40ODEwMTktMzQuMDI3NTg4IDAgMCAwLS4wNzY2MzggMC0uMjI5OTE2IDAtLjMwNjU1NSAwLS40NTk4MzIgMC0uNDU5ODMyIDAtLjIyOTkxNiAwLS40NTk4MzIgMC0uNjg5NzQ4IDMuMDY1NTQ5LTIuMTQ1ODg0IDUuOTc3ODItNC40NDUwNDYgOC43MzY4MTMtNi45NzQxMjMgNS44MjQ1NDItNS4yODgwNzEgMTAuOTU5MzM2LTExLjM0MjUyOSAxNS4yNTExMDQtMTcuODU2ODIuMzgzMTkzLS42MTMxMDkuNzY2Mzg3LTEuMjI2MjE5IDEuMTQ5NTgxLTEuODM5MzI5IDE2LjU1Mzk2MS45MTk2NjUgMjguMjc5Njg0LTEwLjI2OTU4NyAyOC4yNzk2ODQtMTAuMjY5NTg3LTIuNzU4OTk0LTE3LjI0MzcxLTEyLjU2ODc0OS0yNS42NzM5NjgtMTQuNjM3OTk0LTI3LjI4MzM4MSAwIDAtLjA3NjYzOS0uMDc2NjM5LS4yMjk5MTYtLjE1MzI3Ny0uMTUzMjc4LS4wNzY2MzktLjE1MzI3OC0uMTUzMjc4LS4xNTMyNzgtLjE1MzI3OC0uMDc2NjM4LS4wNzY2MzktLjIyOTkxNi0uMTUzMjc3LS4zODMxOTMtLjIyOTkxNi4wNzY2MzktMS4wNzI5NDIuMTUzMjc3LTIuMDY5MjQ1LjIyOTkxNi0zLjE0MjE4Ny4xNTMyNzctMS44MzkzMjkuMTUzMjc3LTMuNzU1Mjk3LjE1MzI3Ny01LjU5NDYyNnYtMS4zNzk0OTctLjY4OTc0OC0uMzgzMTk0YzAtLjQ1OTgzMiAwLS4zMDY1NTUgMC0uNDU5ODMybC0uMDc2NjM4LTEuMTQ5NTgxLS4wNzY2MzktMS41MzI3NzRjMC0uNTM2NDcxLS4wNzY2MzktLjk5NjMwMy0uMTUzMjc3LTEuNDU2MTM1LS4wNzY2MzktLjQ1OTgzMy0uMDc2NjM5LS45OTYzMDQtLjE1MzI3OC0xLjQ1NjEzNmwtLjE1MzI3Ny0xLjQ1NjEzNS0uMjI5OTE2LTEuNDU2MTM2Yy0uMzA2NTU1LTEuOTE1OTY4LS42MTMxMS0zLjc1NTI5Ny0xLjA3Mjk0Mi01LjY3MTI2NS0xLjc2MjY5MS03LjQzMzk1NC00LjY3NDk2Mi0xNC40ODQ3MTYtOC40MzAyNTgtMjAuODQ1NzI5LTMuODMxOTM2LTYuMzYxMDEzLTguNTgzNTM2LTExLjk1NTYzOS0xNC4wMjQ4ODUtMTYuNzA3MjM5LTUuMzY0NzA5LTQuNzUxNi0xMS40MTkxNjctOC41ODM1MzUtMTcuNzAzNTQyLTExLjQxOTE2OC02LjM2MTAxMy0yLjgzNTYzMi0xMi45NTE5NDItNC42NzQ5NjEtMTkuNTQyODcxLTUuNTE3OTg2OC0zLjI5NTQ2NS0uNDU5ODMyMy02LjU5MDkyOS0uNjEzMTA5Ny05Ljg4NjM5NC0uNTM2NDcxaC0xLjIyNjIxOS0uMzA2NTU1Yy0uMDc2NjM5IDAtLjQ1OTgzMiAwLS4zODMxOTMgMGgtLjUzNjQ3MWwtMS4yMjYyMi4wNzY2Mzg3Yy0uNDU5ODMyIDAtLjkxOTY2NC4wNzY2Mzg3LTEuMzAyODU4LjA3NjYzODctMS42ODYwNTEuMTUzMjc3NC0zLjM3MjEwMy4zODMxOTM2LTQuOTgxNTE2LjY4OTc0ODQtNi41OTA5MjkgMS4yMjYyMTk0LTEyLjc5ODY2NSAzLjYwMjAxOS0xOC4yNDAwMTMgNi44OTc0ODQtNS40NDEzNDkgMy4yOTU0NjUtMTAuMTkyOTQ5IDcuMzU3MzE2LTE0LjAyNDg4NCAxMS45NTU2MzktMy44MzE5MzYgNC41OTgzMjItNi44MjA4NDUgOS43MzMxMTYtOC44OTAwOTEgMTUuMDIxMTg3LTIuMDY5MjQ1IDUuMjg4MDcxLTMuMjE4ODI2IDEwLjgwNjA1OC0zLjUyNTM4IDE2LjA5NDEyOS0uMDc2NjM5IDEuMzAyODU4LS4wNzY2MzkgMi42ODIzNTUtLjA3NjYzOSAzLjk4NTIxM3YuOTk2MzA0bC4wNzY2MzkgMS4wNzI5NDJjLjA3NjYzOC42MTMxMDkuMDc2NjM4IDEuMzAyODU4LjE1MzI3NyAxLjkxNTk2Ny4yMjk5MTYgMi42ODIzNTUuNzY2Mzg3IDUuMjg4MDcxIDEuNDU2MTM2IDcuNzQwNTEgMS40NTYxMzUgNC45ODE1MTYgMy43NTUyOTYgOS41MDMyIDYuNTkwOTI5IDEzLjMzNTEzNiAyLjgzNTYzMiAzLjgzMTkzNSA2LjI4NDM3NCA2Ljk3NDEyMiA5Ljg4NjM5MyA5LjUwMzIgMy42MDIwMiAyLjQ1MjQzOSA3LjUxMDU5NCA0LjIxNTEyOSAxMS4zNDI1MyA1LjM2NDcxIDMuODMxOTM1IDEuMTQ5NTggNy42NjM4NzEgMS42MDk0MTMgMTEuMjY1ODkgMS42MDk0MTNoMS4zMDI4NTguNjg5NzQ4Yy4yMjk5MTcgMCAuNDU5ODMzIDAgLjY4OTc0OS0uMDc2NjM5LjM4MzE5MyAwIC43NjYzODctLjA3NjYzOSAxLjE0OTU4MS0uMDc2NjM5LjA3NjYzOCAwIC4yMjk5MTYgMCAuMzA2NTU0LS4wNzY2MzlsLjM4MzE5NC0uMDc2NjM4Yy4yMjk5MTYgMCAuNDU5ODMyLS4wNzY2MzkuNjg5NzQ4LS4wNzY2MzkuNDU5ODMzLS4wNzY2MzkuODQzMDI2LS4xNTMyNzcgMS4zMDI4NTgtLjIyOTkxNi40NTk4MzMtLjA3NjYzOS44NDMwMjYtLjE1MzI3OCAxLjIyNjIyLS4zMDY1NTUuODQzMDI2LS4xNTMyNzcgMS42MDk0MTMtLjQ1OTgzMiAyLjM3NTgtLjY4OTc0OCAxLjUzMjc3NC0uNTM2NDcxIDMuMDY1NTQ4LTEuMTQ5NTgxIDQuMzY4NDA2LTEuODM5MzI5IDEuMzc5NDk3LS42ODk3NDkgMi42MDU3MTctMS41MzI3NzUgMy44MzE5MzYtMi4yOTkxNjIuMzA2NTU1LS4yMjk5MTYuNjg5NzQ4LS40NTk4MzIuOTk2MzAzLS43NjYzODcgMS4yMjYyMTktLjk5NjMwMyAxLjQ1NjEzNi0yLjgzNTYzMi40NTk4MzItNC4wNjE4NTItLjg0MzAyNS0xLjA3Mjk0MS0yLjM3NTgtMS4zNzk0OTYtMy42MDIwMTktLjY4OTc0OC0uMzA2NTU1LjE1MzI3Ny0uNjEzMTEuMzA2NTU1LS45MTk2NjUuNDU5ODMyLTEuMDcyOTQxLjUzNjQ3MS0yLjE0NTg4My45OTYzMDQtMy4yOTU0NjQgMS4zNzk0OTctMS4xNDk1ODEuMzgzMTk0LTIuMzc1OC42ODk3NDktMy42MDIwMi45MTk2NjUtLjYxMzEwOS4wNzY2MzgtMS4yMjYyMTkuMTUzMjc3LTEuOTE1OTY3LjIyOTkxNi0uMzA2NTU1IDAtLjYxMzExLjA3NjYzOC0uOTk2MzA0LjA3NjYzOC0uMzA2NTU0IDAtLjY4OTc0OCAwLS45MTk2NjQgMC0uMzA2NTU1IDAtLjYxMzExIDAtLjkxOTY2NSAwLS4zODMxOTMgMC0uNzY2Mzg3IDAtMS4xNDk1OC0uMDc2NjM4aC0uMDc2NjM5LS4xNTMyNzctLjIyOTkxN2MtLjE1MzI3NyAwLS4zODMxOTMgMC0uNTM2NDctLjA3NjYzOS0uMzgzMTk0LS4wNzY2MzktLjY4OTc0OS0uMDc2NjM5LTEuMDcyOTQyLS4xNTMyNzctMi44MzU2MzMtLjM4MzE5NC01LjY3MTI2NS0xLjIyNjIyLTguMzUzNjItMi40NTI0MzktMi43NTg5OTMtMS4yMjYyMTktNS4zNjQ3MS0yLjkxMjI3MS03Ljc0MDUxLTUuMDU4MTU1cy00LjQ0NTA0NS00LjY3NDk2MS02LjA1NDQ1OC03LjU4NzIzMi0yLjc1ODk5My02LjEzMTA5Ny0zLjI5NTQ2NC05LjUwMzJjLS4yMjk5MTctMS42ODYwNTItLjM4MzE5NC0zLjQ0ODc0Mi0uMzA2NTU1LTUuMTM0Nzk0IDAtLjQ1OTgzMi4wNzY2MzgtLjkxOTY2NS4wNzY2MzgtMS4zNzk0OTd2LS4wNzY2MzktLjE1MzI3Ny0uMzgzMTk0YzAtLjIyOTkxNi4wNzY2MzktLjQ1OTgzMi4wNzY2MzktLjY4OTc0OC4wNzY2MzktLjkxOTY2NS4yMjk5MTYtMS44MzkzMjkuMzgzMTk0LTIuNzU4OTk0IDEuMzAyODU4LTcuMzU3MzE2IDQuOTgxNTE2LTE0LjU2MTM1NSAxMC42NTI3ODEtMjAuMDAyNzAzIDEuNDU2MTM1LTEuMzc5NDk3IDIuOTg4OTA5LTIuNjA1NzE2IDQuNTk4MzIyLTMuNzU1Mjk3czMuMzcyMTAzLTIuMTQ1ODg0IDUuMjExNDMzLTIuOTg4OTFjMS44MzkzMjktLjg0MzAyNSAzLjY3ODY1OC0xLjUzMjc3NCA1LjY3MTI2NC0yLjA2OTI0NSAxLjkxNTk2OC0uNTM2NDcxIDMuOTA4NTc0LS44NDMwMjYgNS45Nzc4Mi0xLjA3Mjk0Mi45OTYzMDMtLjA3NjYzOCAxLjk5MjYwNi0uMTUzMjc3IDMuMDY1NTQ4LS4xNTMyNzdoLjY4OTc0OC44NDMwMjYuNTM2NDcxLjA3NjYzOS4yMjk5MTZsLjg0MzAyNi4wNzY2MzljMi4yMjI1MjIuMTUzMjc3IDQuMzY4NDA2LjQ1OTgzMiA2LjUxNDI5Ljk5NjMwMyA0LjI5MTc2OC45MTk2NjQgOC41MDY4OTcgMi41MjkwNzcgMTIuNDE1NDcxIDQuNjc0OTYxIDcuODE3MTQ5IDQuMzY4NDA3IDE0LjQ4NDcxNyAxMS4xMTI2MTMgMTguNTQ2NTY4IDE5LjIzNjMxNyAyLjA2OTI0NiA0LjA2MTg1MSAzLjUyNTM4MSA4LjQzMDI1OCA0LjIxNTEyOSAxMi45NTE5NDIuMTUzMjc4IDEuMTQ5NTguMzA2NTU1IDIuMjk5MTYxLjM4MzE5NCAzLjQ0ODc0MmwuMDc2NjM5Ljg0MzAyNS4wNzY2MzguODQzMDI2di44NDMwMjYuODQzMDI2Ljc2NjM4Ny44NDMwMjZjMCAuNTM2NDcxLS4wNzY2MzggMS40NTYxMzUtLjA3NjYzOCAxLjk5MjYwNi0uMDc2NjM5IDEuMjI2MjItLjIyOTkxNiAyLjUyOTA3OC0uMzgzMTk0IDMuNzU1Mjk3LS4xNTMyNzcgMS4yMjYyMTktLjM4MzE5MyAyLjQ1MjQzOS0uNjEzMTEgMy42Nzg2NTgtLjIyOTkxNiAxLjIyNjIyLS41MzY0NzEgMi40NTI0MzktLjg0MzAyNSAzLjYwMjAyLS42MTMxMSAyLjM3NTgtMS4zNzk0OTcgNC43NTE2LTIuMjk5MTYyIDcuMTI3NC0xLjgzOTMyOSA0LjU5ODMyMi00LjI5MTc2NyA5LjA0MzM2OC03LjIwNDAzOCAxMy4xMDUyMTktNS45MDExODEgOC4xMjM3MDQtMTMuOTQ4MjQ2IDE0LjcxNDYzMy0yMy4xNDQ4OTEgMTguOTI5NzYyLTQuNTk4MzIzIDIuMDY5MjQ1LTkuNDI2NTYyIDMuNjAyMDE5LTE0LjQwODA3OCA0LjM2ODQwNi0yLjQ1MjQzOC40NTk4MzMtNC45ODE1MTYuNjg5NzQ5LTcuNTEwNTkzLjc2NjM4N2gtLjQ1OTgzMy0uMzgzMTkzLS44NDMwMjYtMS4yMjYyMTktLjYxMzExLS4wNzY2MzktLjIyOTkxNmMtMS4zNzk0OTcgMC0yLjY4MjM1NS0uMDc2NjM4LTQuMDYxODUyLS4yMjk5MTYtNS4zNjQ3MDktLjM4MzE5My0xMC42NTI3OC0xLjM3OTQ5Ni0xNS44NjQyMTMtMi44MzU2MzItNS4xMzQ3OTMtMS40NTYxMzYtMTAuMTE2MzEtMy41MjUzODEtMTQuODY3OTEtNS45Nzc4MTktOS40MjY1NjEtNS4wNTgxNTUtMTcuOTMzNDU3OS0xMS45NTU2MzktMjQuNTI0Mzg3LTIwLjMwOTI1OS0zLjI5NTQ2NDYtNC4xMzg0OS02LjIwNzczNTYtOC42NjAxNzQtOC41ODM1MzU2LTEzLjMzNTEzNS0yLjM3NTgtNC42NzQ5NjItNC4yOTE3Njc4LTkuNjU2NDc4LTUuNjcxMjY0Ni0xNC42Mzc5OTQtMS4zNzk0OTY4LTUuMDU4MTU1LTIuMjIyNTIyNi0xMC4xOTI5NDktMi42MDU3MTYyLTE1LjQwNDM4MWwtLjA3NjYzODctLjk5NjMwM3YtLjIyOTkxNi0uMjI5OTE3LS40NTk4MzItLjg0MzAyNi0uMjI5OTE2LS4zMDY1NTUtLjYxMzEwOS0xLjIyNjIyLS4yMjk5MTZzMCAuMDc2NjM5IDAtLjA3NjYzOHYtLjQ1OTgzM2MwLS42MTMxMDkgMC0xLjMwMjg1OCAwLTEuOTE1OTY4LjA3NjYzODctMi41MjkwNzcuMzA2NTU0OS01LjIxMTQzMi42MTMxMDk3LTcuODE3MTQ4LjMwNjU1NDktMi42MDU3MTYuNzY2Mzg3MS01LjI4ODA3MSAxLjMwMjg1ODEtNy44OTM3ODdzMS4xNDk1ODA3LTUuMjExNDMzIDEuOTE1OTY3OC03LjgxNzE0OWMxLjQ1NjEzNTUtNS4xMzQ3OTMgMy4yOTU0NjQ1LTEwLjExNjMxIDUuNDQxMzQ4NC0xNC43OTEyNzEgNC4zNjg0MDY1LTkuMzQ5OTIyNiAxMC4wMzk2NzExLTE3LjcwMzU0MjEgMTYuODYwNTE2NC0yNC4zNzExMDk5IDEuNjg2MDUxNi0xLjY4NjA1MTYgMy40NDg3NDE3LTMuMjE4ODI1OCA1LjI4ODA3MDctNC43NTE2MDAxIDEuODM5MzI5LTEuNDU2MTM1NSAzLjc1NTI5Ny0yLjgzNTYzMjIgNS43NDc5MDQtNC4xMzg0OTAzIDEuOTE1OTY3LTEuMzAyODU4MSAzLjk4NTIxMy0yLjQ1MjQzODggNi4wNTQ0NTgtMy41MjUzODA3Ljk5NjMwMy0uNTM2NDcxIDIuMDY5MjQ1LTEuMDcyOTQyIDMuMTQyMTg3LTEuNTMyNzc0Mi41MzY0NzEtLjIyOTkxNjIgMS4wNzI5NDItLjQ1OTgzMjMgMS42MDk0MTMtLjY4OTc0ODQuNTM2NDcxLS4yMjk5MTYyIDEuMDcyOTQyLS40NTk4MzIzIDEuNjA5NDEzLS42ODk3NDg0IDIuMTQ1ODg0LS45MTk2NjQ2IDQuMzY4NDA2LTEuNjg2MDUxNyA2LjY2NzU2OC0yLjM3NTgwMDEuNTM2NDcxLS4xNTMyNzc0IDEuMTQ5NTgtLjMwNjU1NDggMS42ODYwNTEtLjUzNjQ3MDkuNTM2NDcxLS4xNTMyNzc1IDEuMTQ5NTgxLS4zMDY1NTQ5IDEuNjg2MDUyLS40NTk4MzIzIDEuMTQ5NTgxLS4zMDY1NTQ4IDIuMjk5MTYxLS42MTMxMDk3IDMuNDQ4NzQyLS44NDMwMjU4LjUzNjQ3MS0uMTUzMjc3NCAxLjE0OTU4MS0uMjI5OTE2MiAxLjc2MjY5LS4zODMxOTM2LjYxMzExLS4xNTMyNzc0IDEuMTQ5NTgxLS4yMjk5MTYxIDEuNzYyNjkxLS4zODMxOTM1LjYxMzEwOS0uMDc2NjM4NyAxLjE0OTU4LS4yMjk5MTYyIDEuNzYyNjktLjMwNjU1NDlsLjg0MzAyNi0uMTUzMjc3NC45MTk2NjQtLjE1MzI3NzRjLjYxMzExLS4wNzY2Mzg3IDEuMTQ5NTgxLS4xNTMyNzc0IDEuNzYyNjkxLS4yMjk5MTYxLjY4OTc0OC0uMDc2NjM4OCAxLjMwMjg1OC0uMTUzMjc3NSAxLjk5MjYwNi0uMjI5OTE2Mi41MzY0NzEtLjA3NjYzODcgMS40NTYxMzYtLjE1MzI3NzQgMS45OTI2MDctLjIyOTkxNjEuMzgzMTkzLS4wNzY2Mzg3Ljg0MzAyNS0uMDc2NjM4NyAxLjIyNjIxOS0uMTUzMjc3NGwuODQzMDI2LS4wNzY2Mzg3LjM4MzE5My0uMDc2NjM4OGguNDU5ODMzYy42ODk3NDgtLjA3NjYzODcgMS4zMDI4NTgtLjA3NjYzODcgMS45OTI2MDYtLjE1MzI3NzRsLjk5NjMwMy0uMDc2NjM4N3MuMzgzMTk0IDAgLjA3NjYzOSAwaC4yMjk5MTYuNDU5ODMyYy41MzY0NzEgMCAxLjE0OTU4MS0uMDc2NjM4NyAxLjY4NjA1Mi0uMDc2NjM4NyAyLjIyMjUyMy0uMDc2NjM4NyA0LjUyMTY4NC0uMDc2NjM4NyA2Ljc0NDIwNyAwIDQuNDQ1MDQ1LjE1MzI3NzQgOC44MTM0NTEuNjg5NzQ4NCAxMy4wMjg1OCAxLjQ1NjEzNTUgOC41MDY4OTcgMS42MDk0MTI5IDE2LjQ3NzMyMyA0LjI5MTc2NzggMjMuNzU4MDAxIDcuODkzNzg3MiA3LjI4MDY3NyAzLjUyNTM4MDcgMTMuNzE4MzI5IDcuODkzNzg3MiAxOS4zODk1OTMgMTIuNjQ1Mzg3My4zODMxOTQuMzA2NTU0OC42ODk3NDkuNjEzMTA5NyAxLjA3Mjk0Mi45MTk2NjQ1LjMwNjU1NS4zMDY1NTQ5LjY4OTc0OS42MTMxMDk3Ljk5NjMwNC45MTk2NjQ1LjY4OTc0OC42MTMxMDk3IDEuMzAyODU4IDEuMjI2MjE5NCAxLjk5MjYwNiAxLjgzOTMyOTEuNjg5NzQ5LjYxMzEwOTcgMS4zMDI4NTggMS4yMjYyMTk0IDEuOTE1OTY4IDEuODM5MzI5MS42MTMxMS42MTMxMDk2IDEuMjI2MjE5IDEuMjI2MjE5MyAxLjgzOTMyOSAxLjkxNTk2NzcgMi4zNzU4IDIuNTI5MDc3NSA0LjU5ODMyMyA1LjA1ODE1NDkgNi41OTA5MjkgNy42NjM4NzExIDMuOTg1MjEzIDUuMTM0Nzk0IDcuMjA0MDM5IDEwLjM0NjIyNiA5LjczMzExNiAxNS4yNTExMDMuMTUzMjc4LjMwNjU1NS4zMDY1NTUuNjEzMTEuNDU5ODMzLjkxOTY2NS4xNTMyNzcuMzA2NTU1LjMwNjU1NC42MTMxMS40NTk4MzIuOTE5NjY0LjMwNjU1NS42MTMxMS42MTMxMSAxLjIyNjIyLjg0MzAyNiAxLjgzOTMzLjMwNjU1NS42MTMxMDkuNTM2NDcxIDEuMTQ5NTguODQzMDI2IDEuNzYyNjkuMjI5OTE2LjYxMzExLjUzNjQ3MSAxLjE0OTU4MS43NjYzODcgMS43NjI2OS45MTk2NjQgMi4yOTkxNjIgMS44MzkzMjkgNC41MjE2ODQgMi41MjkwNzcgNi41OTA5MjkgMS4xNDk1ODEgMy4zNzIxMDQgMS45OTI2MDcgNi4zNjEwMTMgMi42ODIzNTUgOC45NjY3My4yMjk5MTYgMS4wNzI5NDEgMS4yMjYyMTkgMS43NjI2OSAyLjI5OTE2MSAxLjYwOTQxMiAxLjE0OTU4MS0uMDc2NjM4IDEuOTkyNjA3LS45OTYzMDMgMS45OTI2MDctMi4xNDU4ODMuMDc2NjM4LTIuNzU4OTk0IDAtNi4wNTQ0NTktLjM4MzE5NC05LjgwOTc1NXoiLz48L3N2Zz4=;" parent="1" vertex="1">
          <mxGeometry x="1099.59" y="70" width="53.41" height="58" as="geometry" />
        </mxCell>
        <mxCell id="0mHGIIhajZ2bJ3hv1sZ5-2" value="" style="shape=image;verticalLabelPosition=bottom;labelBackgroundColor=default;verticalAlign=top;aspect=fixed;imageAspect=0;editableCssRules=.*;image=data:image/svg+xml,PHN2ZyB4bWxucz0iaHR0cDovL3d3dy53My5vcmcvMjAwMC9zdmciIHdpZHRoPSIyNTYiIHZpZXdCb3g9IjAgMC42NjY5OTIxODc1IDI1NiAyNTUuOTk1NDgzMzk4NDM3NSIgcHJlc2VydmVBc3BlY3RSYXRpbz0ieE1pZFlNaWQiIGhlaWdodD0iMjU1Ljk5NTQ4MzM5ODQzNzUiPjxwYXRoIGZpbGw9IiNkYTRlMzEiIGQ9Im0xMjguMDAxMTI5LjY2N2MtNzAuNjkwMDg5OCAwLTEyOC4wMDExMjkgNTcuMzA0MjYyNy0xMjguMDAxMTI5IDEyNy45OTY2MTIgMCA3MC42OTAwOSA1Ny4zMTEwMzkyIDEyNy45OTg4NyAxMjguMDAxMTI5IDEyNy45OTg4NyA3MC42OTAwOTEgMCAxMjcuOTk4ODcxLTU3LjMwODc4IDEyNy45OTg4NzEtMTI3Ljk5ODg3IDAtNzAuNjkyMzQ5My01Ny4zMTEwMzktMTI3Ljk5NjYxMi0xMjcuOTk4ODcxLTEyNy45OTY2MTJ6bTAgMjM5LjU2MDIzNGMtMjAuMTEyNjIzIDAtMzYuNDE5MTE4NS0xMy40MzU1MjItMzYuNDE5MTE4NS0zMC4wMDQwNDFoNzIuODM4MjM3NWMwIDE2LjU2NjI2LTE2LjMwNjQ5NSAzMC4wMDQwNDEtMzYuNDE5MTE5IDMwLjAwNDA0MXptNjAuMTUyNjQ4LTM5Ljk0MDYzNWgtMTIwLjMxMjA3MTZ2LTIxLjgxNTc4MmgxMjAuMzE0MzMwNnYyMS44MTU3ODJ6bS0uNDMxNDM3LTMzLjA0NDQyN2gtMTE5LjUzNzI5MjRjLS4zOTc1NTQxLS40NTg1NDItLjgwNDE0MzUtLjkxMDMwOC0xLjE4ODE0NDctMS4zNzU2MjctMTIuMzE1MTQyMS0xNC45NTM0NTYtMTUuMjE1NDgtMjIuNzU5OTczLTE4LjAzMjI0MTItMzAuNzE1NTczLS4wNDc0MzU1LS4yNjIwMjQgMTQuOTMzMTI2MiAzLjA2MDcxNSAyNS41NTY0MDQ1IDUuNDUwNTU3IDAgMCA1LjQ2NjM2OTEgMS4yNjQ5NDUgMTMuNDU4MTEwMiAyLjcyMTg5MS03LjY3MzI0NjEtOC45OTQ2NjItMTIuMjI5MzA2NS0yMC40Mjg4NjEtMTIuMjI5MzA2NS0zMi4xMTYwNDggMC0yNS42NTgwNTE4IDE5LjY3ODkyODQtNDguMDc5MjAwMSAxMi41Nzk0MjUyLTY2LjIwMTc5NDUgNi45MDk3NjE1LjU2MjQ0ODcgMTQuMzAwNjUzOSAxNC41ODMwMDc2IDE0Ljc5OTg1NDkgMzYuNTA0OTU0NCA3LjM0NTcxNi0xMC4xNTExODI4IDEwLjQxOTk4NC0yOC42ODk0MDIgMTAuNDE5OTg0LTQwLjA1NTgzNTUgMC0xMS43Njg1MDUyIDcuNzU0NTY0LTI1LjQzODk0NTQgMTUuNTExMzg3LTI1LjkwNjUyMzItNi45MTQyNzkgMTEuMzk1Nzk4MiAxLjc5MTI1MiAyMS4xNjUyMzg3IDkuNTMwMDA0IDQ1LjQwMDIyNzYgMi45MDI1OTcgOS4xMDMwODU2IDIuNTMyMTQ5IDI0LjQyMjQ3MTkgNC43NzI5MDggMzQuMTM3NzAwNC43NDMxNTYtMjAuMTc4MTI5OSA0LjIxMjcxOS00OS42MTk3MjI0IDE3LjAxMzUwOS01OS43ODQ0NTgyLTUuNjQ3MDc1IDEyLjgwMDc5MDYuODM1NzY3IDI4LjgxODE1NTQgNS4yNjk4NTEgMzYuNTE4NTA3NSA3LjE1MzcxNSAxMi40MjM1NjU5IDExLjQ5MDY2OSAyMS44MzYxMTEyIDExLjQ5MDY2OSAzOS42Mzc5NTE1IDAgMTEuOTM1NjU5LTQuNDA2OTc3IDIzLjE3MzMzOS0xMS44NDA3ODggMzEuOTU3OTMgOC40NTI1NDMtMS41ODU2OTkgMTQuMjg5MzYtMy4wMTU1MzkgMTQuMjg5MzYtMy4wMTU1MzlsMjcuNDQ5MzA0LTUuMzU1Njg2Yy4wMDIyNTktLjAwMjI1OS0zLjk4NjgzNSAxNi40MDEzNjYtMTkuMzEyOTk4IDMyLjE5NzM2NXoiLz48L3N2Zz4=;" parent="1" vertex="1">
          <mxGeometry x="1100" y="250" width="53" height="53" as="geometry" />
        </mxCell>
        <mxCell id="0mHGIIhajZ2bJ3hv1sZ5-3" value="Grafana" style="text;html=1;align=center;verticalAlign=middle;whiteSpace=wrap;rounded=0;fontSize=14;fontStyle=1" parent="1" vertex="1">
          <mxGeometry x="1153" y="79" width="110" height="40" as="geometry" />
        </mxCell>
        <mxCell id="0mHGIIhajZ2bJ3hv1sZ5-4" value="Prometheus" style="text;html=1;align=center;verticalAlign=middle;whiteSpace=wrap;rounded=0;fontSize=14;fontStyle=1" parent="1" vertex="1">
          <mxGeometry x="1168" y="260" width="110" height="40" as="geometry" />
        </mxCell>
        <mxCell id="0mHGIIhajZ2bJ3hv1sZ5-6" value="" style="endArrow=classic;html=1;rounded=0;exitX=0;exitY=0.5;exitDx=0;exitDy=0;entryX=1;entryY=0.5;entryDx=0;entryDy=0;dashed=1;flowAnimation=1;fillColor=#d5e8d4;strokeColor=#009900;strokeWidth=2;" parent="1" source="0mHGIIhajZ2bJ3hv1sZ5-2" target="PtXCarbpcVjoQPvpsZYC-14" edge="1">
          <mxGeometry width="50" height="50" relative="1" as="geometry">
            <mxPoint x="830" y="160" as="sourcePoint" />
            <mxPoint x="880" y="110" as="targetPoint" />
            <Array as="points">
              <mxPoint x="1030" y="277" />
              <mxPoint x="1030" y="59" />
            </Array>
          </mxGeometry>
        </mxCell>
        <mxCell id="kbA2GIvJsu1keDuxp5NO-3" value="Client Zone" style="text;html=1;align=center;verticalAlign=middle;whiteSpace=wrap;rounded=0;fontSize=26;fontStyle=1" parent="1" vertex="1">
          <mxGeometry x="1290" y="-430" width="160" height="30" as="geometry" />
        </mxCell>
        <mxCell id="kbA2GIvJsu1keDuxp5NO-4" value="Server Zone" style="text;html=1;align=center;verticalAlign=middle;whiteSpace=wrap;rounded=0;fontSize=26;fontStyle=1" parent="1" vertex="1">
          <mxGeometry x="1290" y="-110.00999999999999" width="160" height="30" as="geometry" />
        </mxCell>
        <mxCell id="kbA2GIvJsu1keDuxp5NO-5" value="" style="shape=image;verticalLabelPosition=bottom;labelBackgroundColor=default;verticalAlign=top;aspect=fixed;imageAspect=0;image=data:image/png,iVBORw0KGgoAAAANSUhEUgAAAgAAAAIACAMAAADDpiTIAAAC61BMVEUAAAAJm+wJmusHnegHnOsAqv8Im+wKmukIm+wAf/8A//8Aqv8Af/8HnewRme4Im+sIne4InOwJmuwJnOsInOsJnOsJnOwAo+wInOsIm+wIm+wJm+wJm+wMneYJnewHn+8Gm+wJm+sAquIJnOwAlOkJm+sJm+sJmesIm+sJnOsKmeoJm+wInOsJm+sHm+wLnu4Lm+gJnOsHmekJm+sInOsIm+wInOsIm+sJm+wJnOsIm+sJm+wHmu8KnuoJm+sIm+sHm+wIm+wInOsJnOwKmu0InOwGnewIm+sJmusIm+sJm+sJm+wJnOsIm+wInO0Jm+wHmusIm+sHnOwJnOwJnOwIm+sJnOsKnOoInOwIne0Im+wInOsJm+wJm+sJnOwJnOwHnOsJm+wJm+sJmuwJnewIm+sJnOsJm+wNofEJm+sLmu0InOsIm+wJnOwJnOwIme4JnOwInOsInO4InO0JnOwJm+wIm+wKm+0InOsJm+wJm+sJnOsGnuoJnOsJnOwImuoInOsIm+sInOwInOsIm+sHnOwMmfIJnOwJnewIm+sInOsJnOsIm+wJnOsIm+wKnOoJnOsInOwIm+sInOsJmuwJnOsPn+8Im+wInOwInOwJnOsJm+sIm+sInOwInOwHm+sJnOwJm+sIm+sKnOoKm+0Jm+sInOsHm+kLlucIm+wIm+wJoOwInOwInOwIm+sJm+sImuoLnO0AoucIm+sInOsJnOwJm+wJm+wInOoKne0JnOwIme0Jm+wInOsJnOwKnekJnOsJnOsInewJm+wGmesInOsGmuoJm+sAn98KmuoInOwIm+wInOsKm+sJm+sLm+4HnewIm+0InOwJm+sInu0Km+oAmeUJm+sJm+sJnOsInOsAmf8GnOsJnO0Jm+wJm+wJm+wKn+kJnOsKm+sJnOsInOwAkdoJm+wOm/AJm+sInOsJnOsJnOsJm+sJm+wInOwInOsIm+wHnOwInOoJnOsJm+sJnOwJnOwPlvAjJPGsAAAA+XRSTlMAvGsiQwbOMM0CAQMERA/kPJkcUO0a8w6Ry+fd8hVRICmdCW8M4vk1yPoZ9tSFYS0X3iNNdXuTkMCC7PQhMqmuRZXJwkd8KtBPWuCnhF85wUKsRtvXj9ZlylZ+x4q5ib1BboM4N7Y0ixOhK13lh78ebfAfcqNxfWS4vp+GJWiMWVtceqt2YhTZcHi3oLGer0uomHOOVMQQl7OwupzTf+lA3MOSMUjfmyQW6rQblOjSjT0sC++tpqRsWEn4OtrrpS/Fal42KNEmZwhMlnl0M/EuYzvM1R1KCoC7qncFJ1Wi2PcY4WZO5geIEvzu+/3+UrXjmmA+gcb1/xEUZEVqAAAL7klEQVR42uzYvyrFYRzHceVPIicSijIokkkpMZgY3IWVW3AJSmZXoOwmAy5ALNJJyUKnpI5/fVfJkfw7x69IPc/rtX+W7/OeniYAAAAAAAAAAAAAAAAAAAAAAAAAAAAAAAAAAAAAAAAAAAAAAAAAAAAAAAAAAAAAIC2txXS6WGKimAcXEwACQAAIAAEgAASAABAAAkAACAABIAAEgAAQAAJAAAgAASAABIAAEAACQAAIAAEgAASAABAAAkAACAABIAAEgAAQAALg190WM+ViAAAAAL/j8LGYvdqur+DupKmm4O7YE/2tlijmvrZrjmLufAULQAACEIAABCAAAQhAAAIQgAAEIAABCEAAAhCAAAQggP8N4EgAWQewEeWKAPINoFSNuFwUQLYBrMSzckUAeQawES8GewWQYwClarwqLwsgvwBW483gsAByC+Ak3ulpFUBWAZRG4739SQHkFMB6fFSdE0A+ASzEZ/2LAsglgJGh+MLNaYcA8ghgNr52fiaAHALYuohvbI8IIIMA1uJb8yUBJB9Ad9TRVhFA6gHMRD3tFQGkHUBX1Dc+IICkA3iMBpauBJBwALvR0GanANINYCcamxZAsgFMjMUPHAgg1QBm4yeuuwTwxL79hDQdxnEcfxR0rYLV0FmRSVAuXGkEJXWwsjpGFgRFIJ0qggr00CnqEN071KGQorr1jyIMoU5FBYZUlgU2U7OpbMsGsc+Ogf2OgXse2LOv3z6v++fy8D5sz+/30xlAOIKi1HQxAJUBdKBIh6oYgMYAcihWKwNQGEBVDYqV7WMA+gKYQPEiBQagLoAcLIwwAHUBjMPGHaNStNJOU7Crs9y9NAHLXdyUzCNYeZbit+S6vIWdfh6ZLtdgZ6CeZ6ZJeAB/8TLg/3QSthobeGqKvIO1LTw1RXKwNjrGY9PjA+xt5bGpsTAGeyuGjVQTeTstwe6G5e59sGuw3F0wgV92uk3gSt7KEzOHKFwkjVQ/YSc0366CF8DKjMUduIUvDEBLAJVwkallAEoCeAgnTxmAkgB64WQXA1ASQAWcTE8xAB0BPICbJAPQEcB9uLnOAHQEkIabbwxARQCL4Ch7iQFoCGAIrj4xAA0BFOCqnwFoCGAMrnpN4GpD6Oiq5u5z32ed3xH6OMQA5k0Ad+Gqek28ubPtyA/8Q2Jt+8jmw6EhBiA+gCm4ymQxl+z4TE9fgQFIDuANSi2z/FTHYgYgNQAzDQ+2rd4dZgAyA1gJP8Z7NjIAiQFE4EviVpQByAugHf7kP6cYgLQAtsOnwRcMQFgAy+DV9GSKAYgK4CI8G4wzAEkBJOFbekOKAcgJ4Cv8W3+MAYgJIByDf+nJFAMQEoBZh3LYxwCkBLAU5fCbAUgJ4CzKIHaCAUgJoAtl0MkfgWICMDfh3WgTA5ATwGV418q/gYICSMK3xjMMQFAAdQl4tpM3gZICMG3wazTKAEQFMAG/DvJhkKwAhp/Dp0QtA5AVgLkHn47zcbC0AF5l4E+sngFIC8Dshz97+EaQvADi8CbymAHIC8Cchi97TWktqbCzKdjdtty1BLsxy90BE6i289rM+tPenT9HXd9xHH8zmQR3s7lIQhISIJBAiQXkVMohoAXKIVZBtFan9Wg7bW2rM22nnXY603Y61Wo7Vm21reMNggcihyAi95XIfYYYIECu3eyOZKbNhx/bAacjmsBu8v1+P5/P9/t8/AmvZ2b3m+/3u9+vSE2vlMxLcraE8sbNYZ7Oa6SNyhNDZzK1mfpMUl74N0ubarzywDXpDG2o1nuU+zq2M7SZCn9VpjzwB5Y20vy5VcoLS5jaQAPHL1TeuGs3a5vm3brNCeWR0aPY2yhH1k2fo7xTUM7kpghNPrrnRI7y1L5t4oTIBXTTtWlpaduqR44vvjHjy8pzk1Y4dakHNio4KM6oY0sbja4Xh7QzpoVKRolTfsma9nmiUhwzhDlt01AXEscMjjOoZRb1Fgf9gEHtkpg+WJz0VSa1yqEPxFm/ZVOLTKzIFIc9yqrWeGREtjhuBLta4oXjF8QFeSxrhR27dosr/sK25ovl5YpbXmZewzUNyk8X9yxnYYN13DpjSlhc9UdWNtP6He+t3RsR181harN05Ay77YafNb6eKd5oYnLdErOzLnlgb/2ZZvFYjAC61YpOHQTQrVp0aiOAZgtCohMBdLtP+AQIsrIi0WoSCfR6R/QqIIFW8TTpAucBAmGqaLaYBlrlimanaaDTBNFtBxF0ul2SxP0AvpQRluRxR5D/DBDtllBBn0Uh0a6FDPr8UPQbRwZtRkdEv5F00GaXGGAsHXRZnC4GeIAQOo8A9CskhCbDQ2KCcAMp9MiXS7gYEEwlYTHDn2ihRZYYooYWOtwqpthDDA0S88UUz1BDg7lijE3U8F7DQDFGcxU9PHe/GGQ4Pbz2dpEYZA1BvHaLmOQjgngsIyQmqaaIx1aIUX5CEW89KYZZRRMvlb0phqklipceFtMcJ4qHSjLFNNOo4p3oFDFOJQ+J8M47YqAMunhlSKUY6HrCeOVrYqJ1hPHIajHSEcp4Y9lSMdNC2njipBjqDtp4YaM4iHfHWaepVUy1mycGe2CAmOsT8rhukBjsYfq47Wy2GOzXBHJZ/OvSOX4hGAx3i9m+QiJXTcgUs71LIzctK5TO8OuAgEg0ivHuJpN7vifmqyeTa0rS5ep4arRvTZwsNvgdpdwRnSZW6BOllSvGyWdxPSBoVofFEvnEcsHylWKLyEPkclzsdbHHPHo5LX5ULDI5TjGHPSVWuZdizmqXSzgMDKY3MsUuoUVEc9A1lWKbO6nmnJw+Yp1m3iTsmH37JTk8McyXqrLERkWPkM4R8XVip9/QzgmJc2KpPuup54BxYq1i6vXcPLFX/zL69dR0sdn9BOyh90Jis+yJJOyR30ekW3iJkD/c+LFYbvcQKnbfkxH5PK4IBMjjmWK/0E2E7KZBIfGD73JrUPcsCYk//JWW3VEcFp9oXUbN1LWIfxwgZ6qi58RHwpspmpr1z4ivbOJ9oilZtUJ85udETUG/3uI3kWFkTdrzA8V/xvQlbJJ+kS1+tIWyycmLiC+Fv0PbJLRtEb8qLCDvVRV8W/wrP0Hgqzg8RvxsBIWv7B/Z4mshDgOupK0uLD534SUydynnoPjffl4m05UJZyQIZlO6U4niiATD08TuxNtHJSjCp8j9BfdeK8GR/k+CX66hIixBUsTr5S/z/H4JmP4bqP5/ieJmCZydHxL+Uy+9KEG0l+tCF0WfPibB1JvPgP8Z/qAEVnk/Tv23NEuAbW9SwTZrigRbeZMKsFX3RSTo6s+qoEr8ealAzpSoYMr4gPgXrXxCBVCsIpP0n8q8XgVNW00r3T+jIq4CpfY6ml8uv0wFx9/48v+inTtUQJw+GSZ3J449roLgoTv5z78rWzuU371QN5jOXeu9QPnakAryX1nRIOVfi3elU/iq3s9R/lR64GPqJiM7L6H859BWDv2S9tp55S/x5w5SNRUX2uPKP8rumEzSVO3drHxiwZ5scnbH2LPKftHasZz0665jxxuU3c63HCFjT4zZGFfWqrrt9hAJe6r8VFRZ6XDdKOo5YqaFfwJnW3YSzjn7pyaURT58az7NHFb/Vl9lh6Znp3G+1w1F504r480pzuJ0r2syB/xYmWzW8U1EctnMlhxlpNiJA2+Sxwuh3Ly+yizxQy1ZfO17qPKWb0WVKRa2z+5PEs+1njy1T2lXmreVE73aDK5u76e0mXTzPdV/J4JmoQfH13Yorw0tqRl5HT/pM0V67oxeHcojfe/615Zt3NVp4B/BuLkbEspNQ2et+agxjQv7Bst+8ak1p+PKadHRtc/uGVDO+T07rHz1GzN+elNM9Vxbzjen3rD2/Z184Nuof+7Wx15Z/Z/zVSpFsQ3DPvn+iLWNXyrkTg4/CJ959bV1u+p+VLPxjZeXl5aWxmKx9eqiVbFYrF9p6eFDvZ470f5Ky2OPjmw8uH0px/YAAAAAAAAAAAAAAAAAAAAAAAAAAAAAAAAAAAAAAAAAAAAAAAAAAAAAAAAAAAAAAAAAAAAAAAAAAAAAAAAAAAAAAAAAAAAAgC78F5PMrNCMRVypAAAAAElFTkSuQmCC;" parent="1" vertex="1">
          <mxGeometry x="1003" y="-27" width="47" height="47" as="geometry" />
        </mxCell>
        <mxCell id="kbA2GIvJsu1keDuxp5NO-7" value="" style="shape=image;verticalLabelPosition=bottom;labelBackgroundColor=default;verticalAlign=top;aspect=fixed;imageAspect=0;image=data:image/png,iVBORw0KGgoAAAANSUhEUgAAAgAAAAIACAMAAADDpiTIAAAC61BMVEUAAAAJm+wJmusHnegHnOsAqv8Im+wKmukIm+wAf/8A//8Aqv8Af/8HnewRme4Im+sIne4InOwJmuwJnOsInOsJnOsJnOwAo+wInOsIm+wIm+wJm+wJm+wMneYJnewHn+8Gm+wJm+sAquIJnOwAlOkJm+sJm+sJmesIm+sJnOsKmeoJm+wInOsJm+sHm+wLnu4Lm+gJnOsHmekJm+sInOsIm+wInOsIm+sJm+wJnOsIm+sJm+wHmu8KnuoJm+sIm+sHm+wIm+wInOsJnOwKmu0InOwGnewIm+sJmusIm+sJm+sJm+wJnOsIm+wInO0Jm+wHmusIm+sHnOwJnOwJnOwIm+sJnOsKnOoInOwIne0Im+wInOsJm+wJm+sJnOwJnOwHnOsJm+wJm+sJmuwJnewIm+sJnOsJm+wNofEJm+sLmu0InOsIm+wJnOwJnOwIme4JnOwInOsInO4InO0JnOwJm+wIm+wKm+0InOsJm+wJm+sJnOsGnuoJnOsJnOwImuoInOsIm+sInOwInOsIm+sHnOwMmfIJnOwJnewIm+sInOsJnOsIm+wJnOsIm+wKnOoJnOsInOwIm+sInOsJmuwJnOsPn+8Im+wInOwInOwJnOsJm+sIm+sInOwInOwHm+sJnOwJm+sIm+sKnOoKm+0Jm+sInOsHm+kLlucIm+wIm+wJoOwInOwInOwIm+sJm+sImuoLnO0AoucIm+sInOsJnOwJm+wJm+wInOoKne0JnOwIme0Jm+wInOsJnOwKnekJnOsJnOsInewJm+wGmesInOsGmuoJm+sAn98KmuoInOwIm+wInOsKm+sJm+sLm+4HnewIm+0InOwJm+sInu0Km+oAmeUJm+sJm+sJnOsInOsAmf8GnOsJnO0Jm+wJm+wJm+wKn+kJnOsKm+sJnOsInOwAkdoJm+wOm/AJm+sInOsJnOsJnOsJm+sJm+wInOwInOsIm+wHnOwInOoJnOsJm+sJnOwJnOwPlvAjJPGsAAAA+XRSTlMAvGsiQwbOMM0CAQMERA/kPJkcUO0a8w6Ry+fd8hVRICmdCW8M4vk1yPoZ9tSFYS0X3iNNdXuTkMCC7PQhMqmuRZXJwkd8KtBPWuCnhF85wUKsRtvXj9ZlylZ+x4q5ib1BboM4N7Y0ixOhK13lh78ebfAfcqNxfWS4vp+GJWiMWVtceqt2YhTZcHi3oLGer0uomHOOVMQQl7OwupzTf+lA3MOSMUjfmyQW6rQblOjSjT0sC++tpqRsWEn4OtrrpS/Fal42KNEmZwhMlnl0M/EuYzvM1R1KCoC7qncFJ1Wi2PcY4WZO5geIEvzu+/3+UrXjmmA+gcb1/xEUZEVqAAAL7klEQVR42uzYvyrFYRzHceVPIicSijIokkkpMZgY3IWVW3AJSmZXoOwmAy5ALNJJyUKnpI5/fVfJkfw7x69IPc/rtX+W7/OeniYAAAAAAAAAAAAAAAAAAAAAAAAAAAAAAAAAAAAAAAAAAAAAAAAAAAAAAAAAAAAAIC2txXS6WGKimAcXEwACQAAIAAEgAASAABAAAkAACAABIAAEgAAQAAJAAAgAASAABIAAEAACQAAIAAEgAASAABAAAkAACAABIAAEgAAQAALg190WM+ViAAAAAL/j8LGYvdqur+DupKmm4O7YE/2tlijmvrZrjmLufAULQAACEIAABCAAAQhAAAIQgAAEIAABCEAAAhCAAAQggP8N4EgAWQewEeWKAPINoFSNuFwUQLYBrMSzckUAeQawES8GewWQYwClarwqLwsgvwBW483gsAByC+Ak3ulpFUBWAZRG4739SQHkFMB6fFSdE0A+ASzEZ/2LAsglgJGh+MLNaYcA8ghgNr52fiaAHALYuohvbI8IIIMA1uJb8yUBJB9Ad9TRVhFA6gHMRD3tFQGkHUBX1Dc+IICkA3iMBpauBJBwALvR0GanANINYCcamxZAsgFMjMUPHAgg1QBm4yeuuwTwxL79hDQdxnEcfxR0rYLV0FmRSVAuXGkEJXWwsjpGFgRFIJ0qggr00CnqEN071KGQorr1jyIMoU5FBYZUlgU2U7OpbMsGsc+Ogf2OgXse2LOv3z6v++fy8D5sz+/30xlAOIKi1HQxAJUBdKBIh6oYgMYAcihWKwNQGEBVDYqV7WMA+gKYQPEiBQagLoAcLIwwAHUBjMPGHaNStNJOU7Crs9y9NAHLXdyUzCNYeZbit+S6vIWdfh6ZLtdgZ6CeZ6ZJeAB/8TLg/3QSthobeGqKvIO1LTw1RXKwNjrGY9PjA+xt5bGpsTAGeyuGjVQTeTstwe6G5e59sGuw3F0wgV92uk3gSt7KEzOHKFwkjVQ/YSc0366CF8DKjMUduIUvDEBLAJVwkallAEoCeAgnTxmAkgB64WQXA1ASQAWcTE8xAB0BPICbJAPQEcB9uLnOAHQEkIabbwxARQCL4Ch7iQFoCGAIrj4xAA0BFOCqnwFoCGAMrnpN4GpD6Oiq5u5z32ed3xH6OMQA5k0Ad+Gqek28ubPtyA/8Q2Jt+8jmw6EhBiA+gCm4ymQxl+z4TE9fgQFIDuANSi2z/FTHYgYgNQAzDQ+2rd4dZgAyA1gJP8Z7NjIAiQFE4EviVpQByAugHf7kP6cYgLQAtsOnwRcMQFgAy+DV9GSKAYgK4CI8G4wzAEkBJOFbekOKAcgJ4Cv8W3+MAYgJIByDf+nJFAMQEoBZh3LYxwCkBLAU5fCbAUgJ4CzKIHaCAUgJoAtl0MkfgWICMDfh3WgTA5ATwGV418q/gYICSMK3xjMMQFAAdQl4tpM3gZICMG3wazTKAEQFMAG/DvJhkKwAhp/Dp0QtA5AVgLkHn47zcbC0AF5l4E+sngFIC8Dshz97+EaQvADi8CbymAHIC8Cchi97TWktqbCzKdjdtty1BLsxy90BE6i289rM+tPenT9HXd9xHH8zmQR3s7lIQhISIJBAiQXkVMohoAXKIVZBtFan9Wg7bW2rM22nnXY603Y61Wo7Vm21reMNggcihyAi95XIfYYYIECu3eyOZKbNhx/bAacjmsBu8v1+P5/P9/t8/AmvZ2b3m+/3u9+vSE2vlMxLcraE8sbNYZ7Oa6SNyhNDZzK1mfpMUl74N0ubarzywDXpDG2o1nuU+zq2M7SZCn9VpjzwB5Y20vy5VcoLS5jaQAPHL1TeuGs3a5vm3brNCeWR0aPY2yhH1k2fo7xTUM7kpghNPrrnRI7y1L5t4oTIBXTTtWlpaduqR44vvjHjy8pzk1Y4dakHNio4KM6oY0sbja4Xh7QzpoVKRolTfsma9nmiUhwzhDlt01AXEscMjjOoZRb1Fgf9gEHtkpg+WJz0VSa1yqEPxFm/ZVOLTKzIFIc9yqrWeGREtjhuBLta4oXjF8QFeSxrhR27dosr/sK25ovl5YpbXmZewzUNyk8X9yxnYYN13DpjSlhc9UdWNtP6He+t3RsR181harN05Ay77YafNb6eKd5oYnLdErOzLnlgb/2ZZvFYjAC61YpOHQTQrVp0aiOAZgtCohMBdLtP+AQIsrIi0WoSCfR6R/QqIIFW8TTpAucBAmGqaLaYBlrlimanaaDTBNFtBxF0ul2SxP0AvpQRluRxR5D/DBDtllBBn0Uh0a6FDPr8UPQbRwZtRkdEv5F00GaXGGAsHXRZnC4GeIAQOo8A9CskhCbDQ2KCcAMp9MiXS7gYEEwlYTHDn2ihRZYYooYWOtwqpthDDA0S88UUz1BDg7lijE3U8F7DQDFGcxU9PHe/GGQ4Pbz2dpEYZA1BvHaLmOQjgngsIyQmqaaIx1aIUX5CEW89KYZZRRMvlb0phqklipceFtMcJ4qHSjLFNNOo4p3oFDFOJQ+J8M47YqAMunhlSKUY6HrCeOVrYqJ1hPHIajHSEcp4Y9lSMdNC2njipBjqDtp4YaM4iHfHWaepVUy1mycGe2CAmOsT8rhukBjsYfq47Wy2GOzXBHJZ/OvSOX4hGAx3i9m+QiJXTcgUs71LIzctK5TO8OuAgEg0ivHuJpN7vifmqyeTa0rS5ep4arRvTZwsNvgdpdwRnSZW6BOllSvGyWdxPSBoVofFEvnEcsHylWKLyEPkclzsdbHHPHo5LX5ULDI5TjGHPSVWuZdizmqXSzgMDKY3MsUuoUVEc9A1lWKbO6nmnJw+Yp1m3iTsmH37JTk8McyXqrLERkWPkM4R8XVip9/QzgmJc2KpPuup54BxYq1i6vXcPLFX/zL69dR0sdn9BOyh90Jis+yJJOyR30ekW3iJkD/c+LFYbvcQKnbfkxH5PK4IBMjjmWK/0E2E7KZBIfGD73JrUPcsCYk//JWW3VEcFp9oXUbN1LWIfxwgZ6qi58RHwpspmpr1z4ivbOJ9oilZtUJ85udETUG/3uI3kWFkTdrzA8V/xvQlbJJ+kS1+tIWyycmLiC+Fv0PbJLRtEb8qLCDvVRV8W/wrP0Hgqzg8RvxsBIWv7B/Z4mshDgOupK0uLD534SUydynnoPjffl4m05UJZyQIZlO6U4niiATD08TuxNtHJSjCp8j9BfdeK8GR/k+CX66hIixBUsTr5S/z/H4JmP4bqP5/ieJmCZydHxL+Uy+9KEG0l+tCF0WfPibB1JvPgP8Z/qAEVnk/Tv23NEuAbW9SwTZrigRbeZMKsFX3RSTo6s+qoEr8ealAzpSoYMr4gPgXrXxCBVCsIpP0n8q8XgVNW00r3T+jIq4CpfY6ml8uv0wFx9/48v+inTtUQJw+GSZ3J449roLgoTv5z78rWzuU371QN5jOXeu9QPnakAryX1nRIOVfi3elU/iq3s9R/lR64GPqJiM7L6H859BWDv2S9tp55S/x5w5SNRUX2uPKP8rumEzSVO3drHxiwZ5scnbH2LPKftHasZz0665jxxuU3c63HCFjT4zZGFfWqrrt9hAJe6r8VFRZ6XDdKOo5YqaFfwJnW3YSzjn7pyaURT58az7NHFb/Vl9lh6Znp3G+1w1F504r480pzuJ0r2syB/xYmWzW8U1EctnMlhxlpNiJA2+Sxwuh3Ly+yizxQy1ZfO17qPKWb0WVKRa2z+5PEs+1njy1T2lXmreVE73aDK5u76e0mXTzPdV/J4JmoQfH13Yorw0tqRl5HT/pM0V67oxeHcojfe/615Zt3NVp4B/BuLkbEspNQ2et+agxjQv7Bst+8ak1p+PKadHRtc/uGVDO+T07rHz1GzN+elNM9Vxbzjen3rD2/Z184Nuof+7Wx15Z/Z/zVSpFsQ3DPvn+iLWNXyrkTg4/CJ959bV1u+p+VLPxjZeXl5aWxmKx9eqiVbFYrF9p6eFDvZ470f5Ky2OPjmw8uH0px/YAAAAAAAAAAAAAAAAAAAAAAAAAAAAAAAAAAAAAAAAAAAAAAAAAAAAAAAAAAAAAAAAAAAAAAAAAAAAAAAAAAAAAAAAAAAAAgC78F5PMrNCMRVypAAAAAElFTkSuQmCC;" parent="1" vertex="1">
          <mxGeometry x="1403" y="32" width="47" height="47" as="geometry" />
        </mxCell>
        <mxCell id="kbA2GIvJsu1keDuxp5NO-10" value="" style="rounded=0;orthogonalLoop=1;jettySize=auto;html=1;" parent="1" source="kbA2GIvJsu1keDuxp5NO-8" target="PtXCarbpcVjoQPvpsZYC-31" edge="1">
          <mxGeometry relative="1" as="geometry" />
        </mxCell>
        <mxCell id="kbA2GIvJsu1keDuxp5NO-8" value="SREC" style="shape=note;whiteSpace=wrap;html=1;backgroundOutline=1;darkOpacity=0.05;size=12;fontStyle=1;fontSize=10;" parent="1" vertex="1">
          <mxGeometry x="623.5" y="-350" width="44" height="55" as="geometry" />
        </mxCell>
        <mxCell id="kbA2GIvJsu1keDuxp5NO-12" value="HTTPS" style="text;html=1;align=center;verticalAlign=middle;whiteSpace=wrap;rounded=0;fontColor=#1971C2;" parent="1" vertex="1">
          <mxGeometry x="1250" y="84" width="60" height="30" as="geometry" />
        </mxCell>
        <mxCell id="kbA2GIvJsu1keDuxp5NO-13" value="" style="shape=mxgraph.networks2.icon;aspect=fixed;fillColor=#EDEDED;strokeColor=#000000;gradientColor=#5B6163;network2IconShadow=1;network2bgFillColor=none;network2Icon=mxgraph.networks2.lock;network2IconW=0.8;network2IconH=0.9999;" parent="1" vertex="1">
          <mxGeometry x="1302" y="94" width="8" height="9.99" as="geometry" />
        </mxCell>
        <mxCell id="kbA2GIvJsu1keDuxp5NO-14" value="" style="rounded=0;whiteSpace=wrap;html=1;" parent="1" vertex="1">
          <mxGeometry x="230" y="410" width="1240" height="170" as="geometry" />
        </mxCell>
        <mxCell id="kbA2GIvJsu1keDuxp5NO-15" value="" style="shape=image;verticalLabelPosition=bottom;labelBackgroundColor=default;verticalAlign=top;aspect=fixed;imageAspect=0;editableCssRules=.*;image=data:image/svg+xml,PHN2ZyB4bWxuczp4bGluaz0iaHR0cDovL3d3dy53My5vcmcvMTk5OS94bGluayIgeG1sbnM9Imh0dHA6Ly93d3cudzMub3JnLzIwMDAvc3ZnIiB4bWw6c3BhY2U9InByZXNlcnZlIiBzdHlsZT0iY29sb3Itc2NoZW1lOiBsaWdodCBkYXJrOyIgdmlld0JveD0iNzYgMjEzIDc0MCAxODguMjAwMDEyMjA3MDMxMjUiIHk9IjBweCIgeD0iMHB4IiBpZD0iTGF5ZXJfMSIgdmVyc2lvbj0iMS4wIiB3aWR0aD0iNzQwIiBoZWlnaHQ9IjE4OC4yMDAwMTIyMDcwMzEyNSI+JiN4YTs8c3R5bGUgdHlwZT0idGV4dC9jc3MiPi5zdDAgeyBmaWxsOiBsaWdodC1kYXJrKHJnYigwLCAyNTUsIDApLCByZ2IoMTgsIDE4LCAxOCkpOyB9IDwvc3R5bGU+JiN4YTs8cGF0aCBkPSJNMzUxLjcsMzk5LjhoLTE0LjJsLTIuNS0xNi42aC0xNy42bC0yLjUsMTYuNmgtMTMuMWwxNC40LTkxLjFoMjFMMzUxLjcsMzk5Ljh6IE0zMTksMzcwLjloMTMuOWwtNi45LTQ2LjJMMzE5LDM3MC45eiIvPiYjeGE7PHBhdGggZD0iTTM4OCwzOTkuOGMtMS4yLTMuNi0xLjctNy40LTEuMy0xMS4ydi0xNC4zYzAtOC41LTIuOC0xMS42LTkuMi0xMS42aC01djM3aC0xNC40di05MWgyMS42YzE0LjksMCwyMS4zLDYuOSwyMS4zLDIwLjl2Ny4yJiMxMDsmIzk7YzAsOS4yLTMsMTUuNS05LjIsMTguNWM3LjIsMyw5LjUsOS45LDkuNSwxOS40djEzLjljLTAuMywzLjgsMC4zLDcuNiwxLjYsMTEuMUwzODgsMzk5Ljh6IE0zNzIuNCwzMjEuN3YyOGg1LjYmIzEwOyYjOTtjNS4zLDAsOC42LTIuMyw4LjYtOS42di05YzAtNi41LTIuMi05LjItNy4zLTkuMkwzNzIuNCwzMjEuN3oiLz4mI3hhOzxwYXRoIGQ9Ik00MDYuMiwzMDguN2g0NC4zdjEzaC0xNXY3OC4yaC0xNC4zdi03OC4yaC0xNUw0MDYuMiwzMDguN3oiLz4mI3hhOzxwYXRoIGQ9Ik00NTYuNiwzMDguN2gxNC4zdjkxLjFoLTE0LjNWMzA4Ljd6Ii8+JiN4YTs8cGF0aCBkPSJNNDkzLjYsMzQ5LjFoMTguNXYxM2gtMTguNXYzNy42aC0xNC4zdi05MWgzNy45djEzaC0yMy42VjM0OS4xeiIvPiYjeGE7PHBhdGggZD0iTTU2Ni4zLDM5OS44aC0xNC41bC0yLjUtMTYuNmgtMTcuN2wtMi41LDE2LjZINTE2bDE0LjctOTEuMWgyMC45TDU2Ni4zLDM5OS44eiBNNTMzLjYsMzcwLjloMTMuOWwtNi45LTQ2LjJMNTMzLjYsMzcwLjl6Ii8+JiN4YTs8cGF0aCBkPSJNNjEzLjQsMzY1Ljh2MTIuM2MwLDE0LjYtNy4zLDIyLjktMjEuNCwyMi45cy0yMS40LTguMy0yMS40LTIyLjl2LTQ3LjZjMC0xNC42LDcuMy0yMy4xLDIxLjQtMjMuMXMyMS40LDguNCwyMS40LDIzLjF2OC45JiMxMDsmIzk7aC0xMy41di05LjhjMC02LjUtMi45LTktNy40LTlzLTcuNSwyLjUtNy41LDl2NDkuMmMwLDYuNSwyLjksOC45LDcuNSw4LjlzNy40LTIuNCw3LjQtOC45di0xM0g2MTMuNHoiLz4mI3hhOzxwYXRoIGQ9Ik02MTguMywzMDguN2g0NC4zdjEzaC0xNXY3OC4yaC0xNC4ydi03OC4yaC0xNUw2MTguMywzMDguN3oiLz4mI3hhOzxwYXRoIGQ9Ik02NjcuOCwzMzAuNWMwLTE0LjYsNy43LTIzLjEsMjEuNy0yMy4xczIxLjgsOC40LDIxLjgsMjMuMXY0Ny42YzAsMTQuNi03LjcsMjIuOS0yMS44LDIyLjlzLTIxLjctOC4zLTIxLjctMjIuOVYzMzAuNXomIzEwOyYjOTsgTTY4Mi4xLDM3OC44YzAsNi41LDIuOSw5LDcuNCw5czcuNC0yLjUsNy40LTl2LTQ5LjJjMC02LjUtMi45LTktNy40LTlzLTcuNCwyLjUtNy40LDlWMzc4Ljh6Ii8+JiN4YTs8cGF0aCBkPSJNNzQ5LDM5OS44Yy0xLjItMy42LTEuNy03LjQtMS4zLTExLjJ2LTE0LjNjMC04LjUtMi45LTExLjYtOS4yLTExLjZoLTV2MzdoLTE0LjN2LTkxaDIxLjZjMTQuOCwwLDIxLjIsNi45LDIxLjIsMjAuOXY3LjImIzEwOyYjOTtjMCw5LjItMywxNS41LTkuMiwxOC41YzcuMiwzLDkuNSw5LjksOS41LDE5LjR2MTMuOWMtMC4zLDMuOCwwLjMsNy42LDEuNiwxMS4xTDc0OSwzOTkuOHogTTczMy4zLDMyMS43djI4aDUuNyYjMTA7JiM5O2M1LjMsMCw4LjYtMi4zLDguNi05LjZ2LTljMC02LjUtMi4yLTkuMi03LjMtOS4yTDczMy4zLDMyMS43eiIvPiYjeGE7PHBhdGggZD0iTTc4My40LDM2OS42bC0xOC4xLTYwLjloMTVsMTAuOSw0MS42bDExLTQxLjZIODE2bC0xOC4xLDYwLjl2MzAuMmgtMTQuM0w3ODMuNCwzNjkuNnoiLz4mI3hhOzxyZWN0IGhlaWdodD0iMTIuNyIgd2lkdGg9IjE2NS4xIiBjbGFzcz0ic3QwIiB5PSIzODguNSIgeD0iNzYiLz4mI3hhOzxwYXRoIGQ9Ik0xNTguMiwzNTQuMWMtMzksMC03MC42LTMxLjYtNzAuNi03MC41czMxLjYtNzAuNiw3MC41LTcwLjZjMzksMCw3MC42LDMxLjYsNzAuNiw3MC41bDAsMCYjMTA7JiM5O0MyMjguNywzMjIuNSwxOTcuMiwzNTQsMTU4LjIsMzU0LjF6IE0xNTguMiwyMjYuNWMtMzEuNSwwLTU3LjEsMjUuNS01Ny4yLDU3LjFjMCwzMS41LDI1LjUsNTcuMSw1Ny4xLDU3LjImIzEwOyYjOTtjMzEuNSwwLDU3LjEtMjUuNSw1Ny4yLTU3LjFjMCwwLDAsMCwwLDB2LTAuMUMyMTUuMiwyNTIuMSwxODkuNywyMjYuNiwxNTguMiwyMjYuNUwxNTguMiwyMjYuNXoiIGNsYXNzPSJzdDAiLz4mI3hhOzxwYXRoIGQ9Ik0zMDIuMiwyODkuOGMtMS45LDAtMy45LTAuMi01LjgtMC43VjI4MWMxLjUsMC40LDMuMSwwLjYsNC42LDAuNmMxLjgsMC4yLDMuNS0wLjYsNC42LTImIzEwOyYjOTtjMS4xLTEuOSwxLjUtNC4xLDEuNC02LjJ2LTQzLjJoOS44djQzLjFjMC4zLDQuNC0xLDguOC0zLjcsMTIuM0MzMTAuNCwyODguNSwzMDYuNCwyOTAuMSwzMDIuMiwyODkuOHoiIGNsYXNzPSJzdDAiLz4mI3hhOzxwYXRoIGQ9Ik0zMzgsMjc2LjRoLTkuOHYtNDYuMmgyNi41djhoLTE2LjhWMjUwaDE1LjZ2Ny45aC0xNS42TDMzOCwyNzYuNHoiIGNsYXNzPSJzdDAiLz4mI3hhOzxwYXRoIGQ9Ik0zODIuOCwyNDAuNGMxLjEsMCwyLjIsMC4xLDMuMiwwLjNsLTAuNyw5Yy0zLjUtMC44LTcuMS0wLjEtMTAsMmMtMS44LDEuNy0yLjcsNC4yLTIuNiw2Ljd2MThoLTkuNnYtMzUuMmg3LjMmIzEwOyYjOTtsMS40LDUuOWgwLjVjMS4yLTEuOSwyLjctMy41LDQuNi00LjZDMzc4LjYsMjQxLjIsMzgwLjcsMjQwLjQsMzgyLjgsMjQwLjR6IiBjbGFzcz0ic3QwIi8+JiN4YTs8cGF0aCBkPSJNNDI0LjUsMjU4LjZjMC4zLDQuOS0xLjQsOS43LTQuNiwxMy41Yy0zLjMsMy40LTcuOSw1LjEtMTIuNyw0LjljLTMuMSwwLjEtNi4yLTAuNy04LjktMi4yJiMxMDsmIzk7Yy0yLjYtMS41LTQuNy0zLjctNi02LjRjLTEuNC0zLTIuMi02LjQtMi4xLTkuN2MtMC4zLTQuOSwxLjQtOS44LDQuNi0xMy41YzMuNC0zLjMsOC01LDEyLjctNC42YzMuMS0wLjEsNi4zLDAuNyw5LDIuMiYjMTA7JiM5O2MyLjYsMS40LDQuNywzLjYsNiw2LjNDNDIzLjksMjUyLDQyNC41LDI1NS4zLDQyNC41LDI1OC42eiBNNDAwLjEsMjU4LjZjLTAuMiwyLjcsMC40LDUuNSwxLjcsNy45YzIuNSwzLjEsNywzLjYsMTAuMSwxLjEmIzEwOyYjOTtjMC40LTAuMywwLjgtMC43LDEuMS0xLjFjMS4zLTIuNCwxLjgtNS4yLDEuNy03LjljMC4yLTIuNy0wLjQtNS41LTEuNy03LjljLTEuMy0xLjgtMy40LTIuOC01LjUtMi42Yy0yLjItMC4yLTQuMywwLjgtNS41LDIuNiYjMTA7JiM5O0M0MDAuNSwyNTMuMSwzOTkuOSwyNTUuOCw0MDAuMSwyNTguNkw0MDAuMSwyNTguNnoiIGNsYXNzPSJzdDAiLz4mI3hhOzxwYXRoIGQ9Ik00NjMuMSwyNDF2NC45bC01LjUsMS40YzEsMS42LDEuNSwzLjQsMS41LDUuM2MwLjIsMy40LTEuMyw2LjctMy45LDguOGMtMy4yLDIuMy03LjEsMy40LTExLDMuMkg0NDEmIzEwOyYjOTtjLTAuOSwwLjYtMS40LDEuNS0xLjUsMi41YzAsMS40LDEuOCwyLjEsNS4zLDIuMWg2YzMuMS0wLjIsNi4zLDAuNyw4LjgsMi41YzIuMSwxLjgsMy4zLDQuNSwzLjEsNy4zYzAuMSwzLjktMS44LDcuNi01LjIsOS42JiMxMDsmIzk7Yy00LjUsMi41LTkuNiwzLjctMTQuOCwzLjRjLTMuOSwwLjItNy44LTAuNy0xMS4yLTIuNmMtMi41LTEuNS00LTQuMy0zLjktNy4yYy0wLjEtMiwwLjYtMy45LDEuOS01LjNjMS42LTEuNiwzLjctMi43LDUuOS0zLjEmIzEwOyYjOTtjLTEtMC40LTEuOS0xLjItMi42LTIuMWMtMC43LTAuOC0xLjEtMS45LTEuMS0zYy0wLjEtMS4yLDAuNC0yLjQsMS4xLTMuNGMxLTEsMi4xLTEuOSwzLjQtMi42Yy0xLjktMC43LTMuNi0yLjEtNC42LTMuOCYjMTA7JiM5O2MtMS4xLTEuOS0xLjctNC0xLjYtNi4yYy0wLjItMy40LDEuMi02LjcsMy43LTguOWMzLjEtMi4zLDYuOS0zLjQsMTAuNy0zLjFjMS4yLDAsMi4zLDAuMSwzLjUsMC4zbDIuNiwwLjRMNDYzLjEsMjQxeiBNNDM1LjgsMjgxLjImIzEwOyYjOTtjMCwxLjMsMC43LDIuNSwxLjksMy4xYzEuNiwwLjgsMy41LDEuMiw1LjMsMS4xYzIuOCwwLjEsNS41LTAuNCw4LjEtMS40YzEuNy0wLjUsMi45LTIuMSwzLTMuOGMwLjEtMS4yLTAuNi0yLjMtMS44LTIuOCYjMTA7JiM5O2MtMS43LTAuNi0zLjUtMC44LTUuNC0wLjdoLTVjLTEuNi0wLjEtMy4zLDAuMy00LjYsMS4yQzQzNi40LDI3OC43LDQzNS44LDI3OS45LDQzNS44LDI4MS4yTDQzNS44LDI4MS4yeiBNNDM5LjMsMjUyLjYmIzEwOyYjOTtjLTAuMSwxLjYsMC40LDMuMywxLjMsNC42YzIuMiwyLjIsNS44LDIuMiw4LDBjMCwwLDAsMCwwLDBjMC45LTEuNCwxLjMtMywxLjItNC42YzAtNC4zLTEuOC02LjQtNS4yLTYuNHMtNS41LDIuMS01LjUsNi40SDQzOS4zeiIgY2xhc3M9InN0MCIvPiYjeGE7PC9zdmc+;" parent="1" vertex="1">
          <mxGeometry x="689.9999999999999" y="461" width="267.66" height="68" as="geometry" />
        </mxCell>
        <mxCell id="kbA2GIvJsu1keDuxp5NO-16" value="" style="endArrow=classic;html=1;rounded=0;exitX=0.585;exitY=0.92;exitDx=0;exitDy=0;entryX=1;entryY=0.5;entryDx=0;entryDy=0;dashed=1;flowAnimation=1;fillColor=#ffe6cc;strokeColor=#00FF00;strokeWidth=2;exitPerimeter=0;edgeStyle=orthogonalEdgeStyle;" parent="1" source="PtXCarbpcVjoQPvpsZYC-21" target="kbA2GIvJsu1keDuxp5NO-15" edge="1">
          <mxGeometry width="50" height="50" relative="1" as="geometry">
            <mxPoint x="1151" y="425" as="sourcePoint" />
            <mxPoint x="1040" y="270" as="targetPoint" />
            <Array as="points">
              <mxPoint x="1000" y="230" />
              <mxPoint x="1000" y="495" />
            </Array>
          </mxGeometry>
        </mxCell>
        <mxCell id="kbA2GIvJsu1keDuxp5NO-17" value="" style="endArrow=classic;html=1;rounded=0;entryX=0;entryY=0.5;entryDx=0;entryDy=0;dashed=1;flowAnimation=1;fillColor=#ffe6cc;strokeColor=#00FF00;strokeWidth=2;edgeStyle=orthogonalEdgeStyle;" parent="1" target="kbA2GIvJsu1keDuxp5NO-15" edge="1">
          <mxGeometry width="50" height="50" relative="1" as="geometry">
            <mxPoint x="640" y="230" as="sourcePoint" />
            <mxPoint x="1052" y="725" as="targetPoint" />
            <Array as="points">
              <mxPoint x="570" y="230" />
              <mxPoint x="570" y="495" />
            </Array>
          </mxGeometry>
        </mxCell>
        <mxCell id="kbA2GIvJsu1keDuxp5NO-18" value="HTTPS" style="text;html=1;align=center;verticalAlign=middle;whiteSpace=wrap;rounded=0;fontColor=#1971C2;" parent="1" vertex="1">
          <mxGeometry x="897" y="460" width="60" height="30" as="geometry" />
        </mxCell>
        <mxCell id="kbA2GIvJsu1keDuxp5NO-19" value="" style="shape=mxgraph.networks2.icon;aspect=fixed;fillColor=#EDEDED;strokeColor=#000000;gradientColor=#5B6163;network2IconShadow=1;network2bgFillColor=none;network2Icon=mxgraph.networks2.lock;network2IconW=0.8;network2IconH=0.9999;" parent="1" vertex="1">
          <mxGeometry x="949" y="470" width="8" height="9.99" as="geometry" />
        </mxCell>
        <mxCell id="kbA2GIvJsu1keDuxp5NO-20" value="Shared Services Zone" style="text;html=1;align=center;verticalAlign=middle;whiteSpace=wrap;rounded=0;fontSize=26;fontStyle=1" parent="1" vertex="1">
          <mxGeometry x="1170" y="420" width="280" height="52.5" as="geometry" />
        </mxCell>
        <mxCell id="kbA2GIvJsu1keDuxp5NO-21" value="&lt;b&gt;&amp;nbsp; Legend:&lt;/b&gt;&lt;div&gt;&lt;br&gt;&lt;/div&gt;&lt;div&gt;&lt;br&gt;&lt;/div&gt;&lt;div&gt;&lt;br&gt;&lt;/div&gt;&lt;div&gt;&lt;br&gt;&lt;/div&gt;&lt;div&gt;&lt;br&gt;&lt;/div&gt;&lt;div&gt;&lt;br&gt;&lt;/div&gt;&lt;div&gt;&lt;br&gt;&lt;/div&gt;&lt;div&gt;&lt;br&gt;&lt;/div&gt;&lt;div&gt;&lt;br&gt;&lt;/div&gt;&lt;div&gt;&lt;br&gt;&lt;/div&gt;&lt;div&gt;&lt;br&gt;&lt;/div&gt;&lt;div&gt;&lt;br&gt;&lt;/div&gt;" style="rounded=0;whiteSpace=wrap;html=1;align=left;" parent="1" vertex="1">
          <mxGeometry x="1160" y="600" width="310" height="200" as="geometry" />
        </mxCell>
        <mxCell id="kbA2GIvJsu1keDuxp5NO-23" value="ControlPC API Calls&amp;nbsp;&lt;span style=&quot;background-color: transparent; color: light-dark(rgb(0, 0, 0), rgb(255, 255, 255));&quot;&gt;(HTTPS)&lt;/span&gt;&lt;span style=&quot;background-color: transparent; color: light-dark(rgb(0, 0, 0), rgb(255, 255, 255));&quot;&gt;:&lt;/span&gt;" style="text;html=1;align=left;verticalAlign=middle;whiteSpace=wrap;rounded=0;fontStyle=0" parent="1" vertex="1">
          <mxGeometry x="1170" y="690" width="170" height="30" as="geometry" />
        </mxCell>
        <mxCell id="kbA2GIvJsu1keDuxp5NO-25" value="RabbitMQ API Calls&amp;nbsp;&lt;span style=&quot;background-color: transparent; color: light-dark(rgb(0, 0, 0), rgb(255, 255, 255));&quot;&gt;(HTTPS)&amp;nbsp;:&lt;/span&gt;" style="text;html=1;align=left;verticalAlign=middle;whiteSpace=wrap;rounded=0;fontStyle=0" parent="1" vertex="1">
          <mxGeometry x="1170" y="660" width="210" height="30" as="geometry" />
        </mxCell>
        <mxCell id="kbA2GIvJsu1keDuxp5NO-26" value="" style="endArrow=none;dashed=1;html=1;rounded=0;strokeColor=#D00000;flowAnimation=1;strokeWidth=2;entryX=0;entryY=0.25;entryDx=0;entryDy=0;exitX=1;exitY=0.25;exitDx=0;exitDy=0;" parent="1" edge="1">
          <mxGeometry width="50" height="50" relative="1" as="geometry">
            <mxPoint x="1370" y="644.83" as="sourcePoint" />
            <mxPoint x="1450" y="644.83" as="targetPoint" />
          </mxGeometry>
        </mxCell>
        <mxCell id="kbA2GIvJsu1keDuxp5NO-27" value="" style="endArrow=none;dashed=1;html=1;rounded=0;strokeColor=#1971C2;flowAnimation=1;strokeWidth=2;exitX=0.982;exitY=0.675;exitDx=0;exitDy=0;exitPerimeter=0;entryX=0;entryY=0.5;entryDx=0;entryDy=0;" parent="1" edge="1">
          <mxGeometry width="50" height="50" relative="1" as="geometry">
            <mxPoint x="1370" y="675.9900000000001" as="sourcePoint" />
            <mxPoint x="1450" y="675.83" as="targetPoint" />
          </mxGeometry>
        </mxCell>
        <mxCell id="kbA2GIvJsu1keDuxp5NO-30" value="" style="endArrow=none;dashed=1;rounded=0;strokeColor=#009900;flowAnimation=1;strokeWidth=2;exitX=0.982;exitY=0.675;exitDx=0;exitDy=0;exitPerimeter=0;entryX=0;entryY=0.5;entryDx=0;entryDy=0;" parent="1" edge="1">
          <mxGeometry width="50" height="50" relative="1" as="geometry">
            <mxPoint x="1370" y="705.02" as="sourcePoint" />
            <mxPoint x="1450" y="704.8599999999999" as="targetPoint" />
          </mxGeometry>
        </mxCell>
        <mxCell id="kbA2GIvJsu1keDuxp5NO-31" value="AMQP (TLSv1.3):" style="text;html=1;align=left;verticalAlign=middle;whiteSpace=wrap;rounded=0;fontStyle=0" parent="1" vertex="1">
          <mxGeometry x="1170" y="630" width="129" height="30" as="geometry" />
        </mxCell>
        <mxCell id="kbA2GIvJsu1keDuxp5NO-32" value="External Services Calls (HTTPS):" style="text;html=1;align=left;verticalAlign=middle;whiteSpace=wrap;rounded=0;fontStyle=0" parent="1" vertex="1">
          <mxGeometry x="1170" y="750" width="180" height="30" as="geometry" />
        </mxCell>
        <mxCell id="kbA2GIvJsu1keDuxp5NO-38" value="" style="endArrow=none;dashed=1;html=1;rounded=0;flowAnimation=1;strokeWidth=2;strokeColor=#FF9933;" parent="1" edge="1">
          <mxGeometry width="50" height="50" relative="1" as="geometry">
            <mxPoint x="1370" y="734.76" as="sourcePoint" />
            <mxPoint x="1450" y="734.76" as="targetPoint" />
          </mxGeometry>
        </mxCell>
        <mxCell id="e_uapiZ9qvVB3w5fOgVw-2" value="" style="group" vertex="1" connectable="0" parent="1">
          <mxGeometry x="690" y="-77" width="60" height="30" as="geometry" />
        </mxCell>
        <mxCell id="0mHGIIhajZ2bJ3hv1sZ5-8" value="HTTPS" style="text;html=1;align=center;verticalAlign=middle;whiteSpace=wrap;rounded=0;fontColor=#1971C2;" parent="e_uapiZ9qvVB3w5fOgVw-2" vertex="1">
          <mxGeometry width="60" height="30" as="geometry" />
        </mxCell>
        <mxCell id="YybtMU9K9pU4E-R7wTCE-3" value="" style="shape=mxgraph.networks2.icon;aspect=fixed;fillColor=#EDEDED;strokeColor=#000000;gradientColor=#5B6163;network2IconShadow=1;network2bgFillColor=none;network2Icon=mxgraph.networks2.lock;network2IconW=0.8;network2IconH=0.9999;" parent="e_uapiZ9qvVB3w5fOgVw-2" vertex="1">
          <mxGeometry x="52" y="10" width="8" height="9.99" as="geometry" />
        </mxCell>
        <mxCell id="e_uapiZ9qvVB3w5fOgVw-3" value="" style="group" vertex="1" connectable="0" parent="1">
          <mxGeometry x="530" y="-80" width="70" height="35" as="geometry" />
        </mxCell>
        <mxCell id="0mHGIIhajZ2bJ3hv1sZ5-7" value="TLS1.3&amp;nbsp;" style="text;html=1;align=center;verticalAlign=middle;whiteSpace=wrap;rounded=0;fontColor=#1971C2;" parent="e_uapiZ9qvVB3w5fOgVw-3" vertex="1">
          <mxGeometry width="70" height="35" as="geometry" />
        </mxCell>
        <mxCell id="YybtMU9K9pU4E-R7wTCE-4" value="" style="shape=mxgraph.networks2.icon;aspect=fixed;fillColor=#EDEDED;strokeColor=#000000;gradientColor=#5B6163;network2IconShadow=1;network2bgFillColor=none;network2Icon=mxgraph.networks2.lock;network2IconW=0.8;network2IconH=0.9999;" parent="e_uapiZ9qvVB3w5fOgVw-3" vertex="1">
          <mxGeometry x="5" y="12.5" width="8" height="9.99" as="geometry" />
        </mxCell>
        <mxCell id="e_uapiZ9qvVB3w5fOgVw-4" value="" style="group" vertex="1" connectable="0" parent="1">
          <mxGeometry x="916" y="-77" width="60" height="30" as="geometry" />
        </mxCell>
        <mxCell id="0mHGIIhajZ2bJ3hv1sZ5-11" value="HTTPS" style="text;html=1;align=center;verticalAlign=middle;whiteSpace=wrap;rounded=0;fontColor=#1971C2;" parent="e_uapiZ9qvVB3w5fOgVw-4" vertex="1">
          <mxGeometry width="60" height="30" as="geometry" />
        </mxCell>
        <mxCell id="YybtMU9K9pU4E-R7wTCE-6" value="" style="shape=mxgraph.networks2.icon;aspect=fixed;fillColor=#EDEDED;strokeColor=#000000;gradientColor=#5B6163;network2IconShadow=1;network2bgFillColor=none;network2Icon=mxgraph.networks2.lock;network2IconW=0.8;network2IconH=0.9999;" parent="e_uapiZ9qvVB3w5fOgVw-4" vertex="1">
          <mxGeometry x="52" y="10" width="8" height="9.99" as="geometry" />
        </mxCell>
        <mxCell id="e_uapiZ9qvVB3w5fOgVw-5" value="" style="group" vertex="1" connectable="0" parent="1">
          <mxGeometry x="888" y="27" width="60" height="30" as="geometry" />
        </mxCell>
        <mxCell id="0mHGIIhajZ2bJ3hv1sZ5-10" value="HTTPS" style="text;html=1;align=center;verticalAlign=middle;whiteSpace=wrap;rounded=0;fontColor=#1971C2;" parent="e_uapiZ9qvVB3w5fOgVw-5" vertex="1">
          <mxGeometry width="60" height="30" as="geometry" />
        </mxCell>
        <mxCell id="YybtMU9K9pU4E-R7wTCE-5" value="" style="shape=mxgraph.networks2.icon;aspect=fixed;fillColor=#EDEDED;strokeColor=#000000;gradientColor=#5B6163;network2IconShadow=1;network2bgFillColor=none;network2Icon=mxgraph.networks2.lock;network2IconW=0.8;network2IconH=0.9999;" parent="e_uapiZ9qvVB3w5fOgVw-5" vertex="1">
          <mxGeometry x="51" y="10" width="8" height="9.99" as="geometry" />
        </mxCell>
        <mxCell id="e_uapiZ9qvVB3w5fOgVw-9" value="" style="endArrow=classic;html=1;rounded=0;exitX=1;exitY=0.5;exitDx=0;exitDy=0;entryX=1;entryY=0.5;entryDx=0;entryDy=0;dashed=1;flowAnimation=1;strokeColor=#FF9933;strokeWidth=2;" edge="1" parent="1" source="e_uapiZ9qvVB3w5fOgVw-14" target="0mHGIIhajZ2bJ3hv1sZ5-4">
          <mxGeometry width="50" height="50" relative="1" as="geometry">
            <mxPoint x="1244.5" y="190" as="sourcePoint" />
            <mxPoint x="1294.5" y="140" as="targetPoint" />
            <Array as="points">
              <mxPoint x="1350" y="96" />
              <mxPoint x="1350" y="280" />
            </Array>
          </mxGeometry>
        </mxCell>
        <mxCell id="e_uapiZ9qvVB3w5fOgVw-11" value="" style="shape=image;verticalLabelPosition=bottom;labelBackgroundColor=default;verticalAlign=top;aspect=fixed;imageAspect=0;image=https://grafana.com/media/docs/loki/logo-grafana-loki.png;" vertex="1" parent="1">
          <mxGeometry x="1100" y="160" width="53" height="53" as="geometry" />
        </mxCell>
        <mxCell id="e_uapiZ9qvVB3w5fOgVw-13" value="Loki" style="text;html=1;align=center;verticalAlign=middle;whiteSpace=wrap;rounded=0;fontSize=14;fontStyle=1" vertex="1" parent="1">
          <mxGeometry x="1160" y="174" width="73" height="40" as="geometry" />
        </mxCell>
        <mxCell id="e_uapiZ9qvVB3w5fOgVw-14" value="" style="shape=image;verticalLabelPosition=bottom;labelBackgroundColor=default;verticalAlign=top;imageAspect=0;image=data:image/png,iVBORw0KGgoAAAANSUhEUgAAAgAAAAIACAYAAAD0eNT6AAAAAXNSR0IArs4c6QAAIABJREFUeAHt3W2MrWdVBuCbgkiRtlQMH1FjixSplAoohQI/0BgVUSMoIvpHiAImJiUVisZgMNGgCAUsxFRsELXYNEgRKpSWgCZ+/xArBZRIEfAjCmg1AdrSUudpZmzh7DN7Zt71zrvXmWsnk1NmZq93nWutw3PPnpm9EzcCBAgQIECAAAECBAgQIECAAAECBAgQIECAAAECBAgQIECAAAECBAgQIECAAAECBAgQIECAAAECBAgQIECAAAECBAgQIECAAAECBAgQIECAAAECBAgQIECAAAECBAgQIECAAAECBAgQIECAAAECBAgQIECAAAECBAgQIECAAAECBAgQIECAAAECBAgQIECAAAECBAgQIECAAAECBAgQIECAAAECBAgQIECAAAECBAgQIECAAAECBAgQIECAAAECBAgQIECAAAECBAgQIECAAAECBAgQIECAAAECBAgQIECAAAECBAgQIECAAAECBAgQIECAAAECBAgQIECAAAECBAgQIECAAAECBAgQIECAAAECBAgQIECAAAECBAgQIECAAAECBAgQIECAAAECBAgQIECAAAECBAgQIECAAAECBAgQIECAAAECBAgQIECAAAECBAgQIECAAAECBAgQIECAAAECBAgQIECAAAECBAgQIECAAAECBAgQIECAAAECBAgQIECAAAECBAgQIECAAAECBAgQIECAAAECBAgQ6CdwUpJvSfLsrdZfluSNSa5Mcp03BnbADtgBO2AH/n8Hxtk4zshxVv5oknOTjDO01e20JD+5dfBfleS/ktzhjYEdsAN2wA7YgX3vwGe2gsBbkzw3yambnAS+Lcmbk3zOkPc9ZCFJULQDdsAO2IHddmCcrZcneewmBYFx8F/j0Hfo2wE7YAfsgB04lB1459JB4P5JXpvkNgM/lIHvlgx9zFcOdsAO2IGjtQO3J/ndJA847EcEHp/kYw5+B78dsAN2wA7YgUV34JNJnnxYIeCiJF8w8EUHLukfraRv3uZtB+zAbjswzuSfnTME3CPJqxz8Dn47YAfsgB2wAxu5A5fM8auD43cRx/cadksgPsbHDtgBO2AH7MCyO/Cm6hBwscNf+LEDdsAO2AE70GIHXl/17YDxfQWJjoEdsAN2wA7YgT47cMHUEDB+2v8WAUAAsgN2wA7YATvQagduTfLEg4aA8bSDHzfwVgOXzvukc7MyKztgB+begfHr+qccJAS8xuHv8LcDdsAO2AE70HoHXrnfADBewc/v+kunc6dT9e2YHbADdmDeHRhn+Tn7CQFvk/haJz7/oOb9B8WXrx2wA5124C17DQAjKXyxOACMVzF6e5LnJ3lKkrO3nlfgod4Y2AE7YAfsgB2480z89iQvSPKOGV5Vd7xuwCP3EgJ+u/DwHwf/y5OMFw5yI0CAAAECBNYLnJ7k14qDwBvWXfa+Sf6nKAD8/XaqW3dNHydAgAABAgSOFfjGJB8oOpNv2goVJx97ibve8+yiC707yf3uKuu/CBAgQIAAgQMIjF/ju7bobH7WbteveL7/DyU5bbeL+BgBAgQIECCwZ4ERAioeCXjjblccrys85Scbb05y1m4X8DECBAgQIEBg3wKPKHhm3k8c76pnTjz8R3B49fGKez8BAgQIECAwSeA3Cs7pM1Z18LSJhceTDTxwVWHvI0CAAAECBCYLPKjgSfqeuqqLCycGgPesKup9BAgQIECAQJnA+yae1S9c1cnU5/4fLxvsRoAAAQIECMwn8OKJAeDiVa1dNrHoD64q6n0ECBAgQIBAmcAzJp7VK58Q6MqJRc8r++spRIAAAQIECKwSeMLEs/qKVUWvmlh0T88zvOrC3keAAAECBAjsSWCctVN+XX+c9cfcBIBjSLyDAAECBAhslIAAsFHj0AwBAgQIEDgcAQHgcJxdhQABAgQIbJSAALBR49AMAQIECBA4HAEB4HCcXYUAAQIECGyUgACwUePQDAECBAgQOBwBAWBm55OSPCTJY5I8dvu/7znzNSvKn5zkYUken+TsJKdWFD2EGuM1JB613ffXJbn3IVzTJQgQINBRQACYYWr3SPL9Wy9nfHmS/17xe5Y3JXlzkh9IMj53U24PSHJRkr9IcvuKvj+Y5FeSPHRTGt7u4/wkv5nk31b0/PkkVyd5jjCwYVPTDgECSwsIAMUTGIfRX604iI73ZAt/k+RJxT3st9y9kvzcccLKqr5vSTJeSvK0/V6o+PPP2npU5e37sP5okh8u7kE5AgQIdBUQAAon91NJbt3HgbRzuI6XP35JYR/7KXX6VgC57gA9j94/kuQR+7lY4ed+1z4Cy47zzp+XJhmhx40AAQJHWUAAKJr+eAXDnQPmoH+Or8IP83ZKkusn9v2pBb4l8H1JbpvY9+9t2LdfDnPurkWAAIEhIAAU7MHTCg6kERrG993HzwUcxm387MEfTTxEd4LODUlGmDiM21jY/y3qe6lHXQ7DyTUIECCwTkAAWCe05uPjp+U/UXQgjQN1/CDbV625ZsWHf6yw59H3yyua2kON9xX2Pb5dM37TwY0AAQJHUUAAmDj18VPzO18JV/35CxN7Wnf3r0jyT8V9fy7J16678MSPj4f+q4x36vzBxJ7cnQABAl0FBICJk/vHGQ6lj03sad3dxw/Q7RyAlX++eN2FJ378bTP0PR4FGD8I6UaAAIGjJiAATJj4OTMcSDsH8rkT+lp319fP1PefrbvwhI/fN8lnZ+p7fDvEjQABAkdNQACYMPGfmOlAGiHguRP6WnfXv56p7/GkO3M9sdHjZup5WF+8DszHCRAgcAIKCAAThvrzMx5KL53Q17q7fnLGvsezCc5xG78dsfPoSPWfV8zRsJoECBDYcAEBYMKAxtPiVh9GO/VeMaGvdXdd9fTEO9ed+ucZ6y5+wI//+IzW7zxgT+5GgACBzgICwITpXTDjoXThhL7W3fUfZux7/FrkHLfvnLHny+ZoWE0CBAhsuIAAMGFAz5jxUHrmhL7W3fWgT/277tGB/1x34Qkf/6YZrX9pQl/uSoAAga4CAsCEyd3/gM/9v+4gHU9z+zUT+lp31/EMeOt6OMjHx6sfznm7caa+nzxn02oTIEBgQwUEgImDmeOr6T+Z2NO6u8/11fSPrLvwxI+/ZoYA8B9J7jmxL3cnQIBARwEBYOLUnjLDofQ9E3vay92vKu57PCHSeIbBOW/jBwxvLu77RXM2rDYBAgQ2WEAAKBjOuwoPpfGIwmHcxsv43lLY99MPo+kkryzseTzj4n0OqW+XIUCAwKYJCAAFE3lQ0QsCjRcCmvv59O/+131O0WF6yd2Lzvzf48D+y4K+x5MWnTdzr8oTIEBgkwUEgKLpPDrJ+H7yQX54btznU0m+taiX/ZT55Qk9j77HtxLutZ8LFnzug5N8aELf4/Afv8HhRoAAgaMsIAAUTv8bkrz/AAfT9UnOLOxjv6XGIwH7/d76F7dfAvik/V6s6PNPTXL1Aaz/NckTinpQhgABAp0FBIDi6Y0fhHtekn/fw+H06STjV/K+sriHg5T7+iSXJhm/grjuUYw/T/LEg1xkhvuMJwj6wB56Hi8k9KtJTpuhByUJECDQUUAAmGlq904yXnZ3fH/8mu1D6oYk7976Hf/XbX0f+7uTjM/ZtNtDtsLL85OM58cfr+73ke3vuY+H+i9K8vBNazjJeBTi/O0DfjwqMB6F+XCS9yYZz/I3nlTplA3sW0sECBBYUkAAWFLftQkQIECAwEICAsBC8C5LgAABAgSWFBAAltR3bQIECBAgsJCAALAQvMsSIECAAIElBQSAJfVdmwABAgQILCQgACwE77IECBAgQGBJAQFgSX3XJkCAAAECCwkIAAvBuywBAgQIEFhSQABYUt+1CRAgQIDAQgICwELwLkuAAAECBJYUEACW1HdtAgQIECCwkIAAsBC8yxIgQIAAgSUFBIAl9V2bAAECBAgsJCAALATvsgQIECBAYEkBAWBJfdcmQIAAAQILCQgAC8G7LAECBAgQWFJAAFhS37UJECBAgMBCAgLAQvAuS4AAAQIElhQQAJbUd20CBAgQILCQwEYGgIuTvMQbAztgB+yAHbADs+3AOGvvmPB21argMt45paj78rMDdsAO2AE7sNk7IAAIO8KeHbADdsAOHMEdEACO4NCl8s1O5eZjPnbADhzGDggAAoDkbwfsgB2wA0dwB1YGgGuOIMRhpC3XkOrtgB2wA3ZgU3bgXat+CPB6AUAatgN2wA7YATtwQu/A360KAB8z9BN66JuSPvXhKyE7YAfswHI7cOOqAPAvAoAAYAfsgB2wA3bghN6BcdYfcxupQCpjYAfsgB2wA3bgxN2Bjx5z+id5vwAgANkBO2AH7IAdOKF34G9XBYB3GvoJPXSJ/sRN9GZrtnbADux1B8ZZf8xt/G7gXgv4PFZ2wA7YATtgB/rtwMrnARAA+g3SPz4zswN2wA7Ygf3sgADg0Q6P9tgBO2AH7MAR3AEB4AgOfT8J0ef6isIO2AE7cGLuwCwB4GVJnueNgR2wA3bADtiB2XZgnLVTwtksAeCRx/xYoXcQIECAAAEClQLjrBUAKkXVIkCAAAECDQQEgAZD0iIBAgQIEKgWEACqRdUjQIAAAQINBASABkPSIgECBAgQqBYQAKpF1SNAgAABAg0EBIAGQ9IiAQIECBCoFhAAqkXVI0CAAAECDQQEgAZD0iIBAgQIEKgWEACqRdUjQIAAAQINBASABkPSIgECBAgQqBYQAKpF1SNAgAABAg0EBIAGQ9IiAQIECBCoFhAAqkXVI0CAAAECDQQEgAZD0iIBAgQIEKgWEACqRdUjQIAAAQINBASABkPSIgECBAgQqBYQAKpF1SNAgAABAg0EBIAGQ9IiAQIECBCoFhAAqkXVI0CAAAECDQQEgAZD0iIBAgQIEKgWEACqRdUjQIAAAQINBASABkPSIgECBAgQqBYQAKpF1SNAgAABAg0EBIAGQ9IiAQIECBCoFhAAqkXVI0CAAAECDQQEgAZD0iIBAgQIEKgWEACqRdUjQIAAAQINBASABkPSIgECBAgQqBYQAKpF1SNAgAABAg0EBIAGQ9IiAQIECBCoFhAAqkXVI0CAAAECDQQEgAZD0iIBAgQIEKgWEACqRdUjQIAAAQINBASABkPSIgECBAgQqBYQAKpF1SNAgAABAg0EBIAGQ9IiAQIECBCoFhAAqkXVI0CAAAECDQQEgAZD0iIBAgQIEKgWEACqRdUjQIAAAQINBASABkPSIgECBAgQqBYQAKpF1SNAgAABAg0EBIAGQ9IiAQIECBCoFhAAqkXVI0CAAAECDQQEgAZD0iIBAgQIEKgWEACqRdUjQIAAAQINBASABkPSIgECBAgQqBYQAKpF1SNAgAABAg0EBIAGQ9IiAQIECBCoFhAAqkXVI0CAAAECDQQEgAZD0iIBAgQIEKgWEACqRdUjQIAAAQINBASABkPSIgECBAgQqBYQAKpF1SNAgAABAg0EBIAGQ9IiAQIECBCoFhAAqkXVI0CAAAECDQQEgAZD0iIBAgQIEKgWEACqRdUjQIAAAQINBASABkPSIgECBAgQqBYQAKpF1SNAgAABAg0EBIAGQ9IiAQIECBCoFhAAqkXVI0CAAAECDQQEgAZD0iIBAgQIEKgWEACqRdUjQIAAAQINBASABkPSIgECBAgQqBYQAKpF1SNAgAABAg0EBIAGQ9IiAQIECBCoFhAAqkXVI0CAAAECDQQEgAZD0iIBAgQIEKgWEACqRdUjQIAAAQINBASABkPSIgECBAgQqBYQAKpF1SNAgAABAg0EBIAGQ9IiAQIECBCoFhAAqkXVI0CAAAECDQQEgAZD0iIBAgQIEKgWEACqRdUjQIAAAQINBASABkPSIgECBAgQqBYQAKpF1SNAgAABAg0EBIAGQ9IiAQIECBCoFhAAqkXVI0CAAAECDQQEgAZD0iIBAgQIEKgWEACqRdUjQIAAAQINBASABkPSIgECBAgQqBYQAKpF1SNAgAABAg0EBIAGQ9IiAQIECBCoFhAAqkXVI0CAAAECDQQEgAZD0iIBAgQIEKgWEACqRdUjQIAAAQINBASABkPSIgECBAgQqBYQAKpF1SNAgAABAg0EBIAGQ9IiAQIECBCoFhAAqkXVI0CAAAECDQQEgAZD0iIBAgQIEKgWEACqRdUjQIAAAQINBASABkPSIgECBAgQqBYQAKpF1SNAgAABAg0EBIAGQ9IiAQIECBCoFhAAqkXVI0CAAAECDQQEgAZD0iIBAgQIEKgWEACqRdUjQIAAAQINBASABkPSIgECBAgQqBYQAKpF1SNAgAABAg0EBIAGQ9IiAQIECBCoFhAAqkXVI0CAAAECDQQEgAZD0iIBAgQIEKgWEACqRdUjQIAAAQINBASABkPSIgECBAgQqBYQAKpF1SNAgAABAg0EBIAGQ9IiAQIECBCoFhAAqkXVI0CAAAECDQQEgAZD0iIBAgQIEKgWEACqRdUjQIAAAQINBASABkPSIgECBAgQqBYQAKpF1SNAgAABAg0EBIAGQ9IiAQIECBCoFhAAqkXVI0CAAAECDQQEgAZD0iIBAgQIEKgWEACqRdUjQIAAAQINBASABkPSIgECBAgQqBYQAKpF1SNAgAABAg0EBIAGQ9IiAQIECBCoFhAAqkXVI0CAAAECDQQEgAZD0iIBAgQIEKgWEACqRdUjQIAAAQINBASABkPSIgECBAgQqBYQAKpF1SNAgAABAg0EBIAGQ9IiAQIECBCoFhAAqkXVI0CAAAECDQQEgAZD0iIBAgQIEKgWEACqRdUjQIAAAQINBASABkPSIgECBAgQqBYQAKpF1SNAgAABAg0EBIAGQ9IiAQIECBCoFhAAqkXVI0CAAAECDQQEgAZD0iIBAgQIEKgWEACqRdUjQIAAAQINBASABkPSIgECBAgQqBYQAKpF1SNAgAABAg0EBIAGQ9IiAQIECBCoFhAAqkXVI0CAAAECDQQEgAZD0iIBAgQIEKgWEACqRdUjQIAAAQINBASABkPSIgECBAgQqBYQAKpF1SNAgAABAg0EBIAGQ9IiAQIECBCoFhAAqkXVI0CAAAECDQQEgAZD0iIBAgQIEKgWEACqRdUjQIAAAQINBASABkPSIgECBAgQqBYQAKpF1SNAgAABAg0EBIAGQ9IiAQIECBCoFhAAqkXVI0CAAAECDQQEgAZD0iIBAgQIEKgWEACqRdUjQIAAAQINBASABkPSIgECBAgQqBYQAKpF1SNAgAABAg0EBIAGQ9IiAQIECBCoFhAAqkXVI0CAAAECDQQEgAZD0iIBAgQIEKgWEACqRdUjQIAAAQINBASABkPSIgECBAgQqBYQAKpF1SNAgAABAg0EBIAGQ9IiAQIECBCoFhAAqkXVI0CAAAECDQQEgAZD0iIBAgQIEKgWEACqRdUjQIAAAQINBASABkPSIgECBAgQqBYQAKpF1SNAgAABAg0EBIAGQ9IiAQIECBCoFhAAqkXVI0CAAAECDQQEgAZD0iIBAgQIEKgWEACqRdUjQIAAAQINBASABkPSIgECBAgQqBYQAKpF1SNAgAABAg0EBIAGQ9IiAQIECBCoFhAAqkXVI0CAAAECDQQEgAZD0iIBAgQIEKgWEACqRdUjQIAAAQINBASABkPSIgECBAgQqBYQAKpF1SNAgAABAg0EBIAGQ9IiAQIECBCoFhAAqkXVI0CAAAECDQQEgAZD0iIBAgQIEKgWEACqRdUjQIAAAQINBASABkPSIgECBAgQqBYQAKpF1SNAgAABAg0EBIAGQ9IiAQIECBCoFhAAqkXVI0CAAAECDQQEgAZD0iIBAgQIEKgWEACqRdUjQIAAAQINBASABkPSIgECBAgQqBYQAKpF1SNAgAABAg0EBIAGQ9IiAQIECBCoFhAAqkXVI0CAAAECDQQEgAZD0iIBAgQIEKgWEACqRdUjQIAAAQINBASABkPSIgECBAgQqBYQAKpF1SNAgAABAg0EBIAGQ9IiAQIECBCoFhAAqkXVI0CAAAECDQQEgAZD0iIBAgQIEKgWEACqRdUjQIAAAQINBASABkPSIgECBAgQqBYQAKpF1SNAgAABAg0EBIAGQ9IiAQIECBCoFhAAqkXVI0CAAAECDQQEgAZD0iIBAgQIEKgWEACqRdUjQIAAAQINBASABkPSIgECBAgQqBYQAKpF1SNAgAABAg0EBIAGQ9IiAQIECBCoFhAAqkXVI0CAAAECDQQEgAZD0iIBAgQIEKgWEACqRdUjQIAAAQINBASABkPSIgECBAgQqBYQAKpF1SNAgAABAg0EBIAGQ9IiAQIECBCoFhAAqkXVI0CAAAECDQQEgAZD0iIBAgQIEKgWEACqRdUjQIAAAQINBASABkPSIgECBAgQqBYQAKpF1SNAgAABAg0EBIAGQ9IiAQIECBCoFhAAqkXVI0CAAAECDQQEgAZD0iIBAgQIEKgWEACqRdUjQIAAAQINBASABkPSIgECBAgQqBYQAKpF1SNAgAABAg0EBIAGQ9IiAQIECBCoFhAAqkXVI0CAAAECDQQEgAZD0iIBAgQIEKgWEACqRdUjQIAAAQINBASABkPSIgECBAgQqBYQAKpF1SNAgAABAg0EBIAGQ9IiAQIECBCoFhAAqkXVI0CAAAECDQQEgAZD0iIBAgQIEKgWEACqRdUjQIAAAQINBASABkPSIgECBAgQqBYQAKpF1SNAgAABAg0EBIAGQ9IiAQIECBCoFhAAqkXVI0CAAAECDQQEgAZD0iIBAgQIEKgWEACqRdUjQIAAAQINBASABkPSIgECBAgQqBYQAKpF1SNAgAABAg0EBIAGQ9IiAQIECBCoFhAAqkXVI0CAAAECDQQEgAZD0iIBAgQIEKgWEACqRdUjQIAAAQINBASABkPSIgECBAgQqBYQAKpF1SNAgAABAg0EBIAGQ9IiAQIECBCoFhAAqkXVI0CAAAECDQQEgAZD0iIBAgQIEKgWEACqRdUjQIAAAQINBASABkPSIgECBAgQqBYQAKpF1SNAgAABAg0EBIAGQ9IiAQIECBCoFhAAqkXVI0CAAAECDQQEgAZD0iIBAgQIEKgWEACqRdUjQIAAAQINBASABkPSIgECBAgQqBYQAKpF1SNAgAABAg0EBIAGQ9IiAQIECBCoFhAAqkXVI0CAAAECDQQEgAZD0iIBAgQIEKgWEACqRdUjQIAAAQINBASABkPSIgECBAgQqBYQAKpF1SNAgAABAg0EBIAGQ9IiAQIECBCoFhAAqkXVI0CAAAECDQQEgAZD0iIBAgQIEKgWEACqRdUjQIAAAQINBASABkPSIgECBAgQqBYQAKpF1SNAgAABAg0EBIAGQ9IiAQIECBCoFhAAqkXVI0CAAAECDQQEgAZD0iIBAgQIEKgWEACqRdUjQIAAAQINBASABkPSIgECBAgQqBYQAKpF1SNAgAABAg0EBIAGQ9IiAQIECBCoFhAAqkXVI0CAAAECDQQEgAZD0iIBAgQIEKgWEACqRdUjQIAAAQINBASABkPSIgECBAgQqBYQAKpF1SNAgAABAg0EBIAGQ9IiAQIECBCoFhAAqkXVI0CAAAECDQQEgAZD0iIBAgQIEKgWEACqRdUjQIAAAQINBASABkPSIgECBAgQqBYQAKpF1SNAgAABAg0EBIAGQ9IiAQIECBCoFhAAqkXVI0CAAAECDQQEgAZD0iIBAgQIEKgWmCUAXJnkjglvj6/+W6pHgAABAgQIfInA+RPO6XHGX/El1bb/x2UTiz59VVHvI0CAAAECBMoEfmjiWf2GVZ28emLRF60q6n0ECBAgQIBAmcBFE8/qi1d1cuHEou9dVdT7CBAgQIAAgTKBP514Vl+wqpPvnVj0C0keuKqw9xEgQIAAAQKTBR6c5LaJZ/VTV3Vx5sSi44cLXruqsPcRIECAAAECkwUuKTinzzheF5+cWPyWJA8/XnHvJ0CAAAECBA4kcHaSWyee0R/f7cpvmlh8PArw4SSn7XYRHyNAgAABAgT2LHBKkhsKzuc37nbFZxVcYISAa5OMht0IECBAgACBgwucmuQ9RWfzM3dr4+QkNxVdaKSVh+12MR8jQIAAAQIEjitwVpIPFp3J42y/z3GvtP2B8SQB46v4irfPJ3nF1g8Hnr7uoj5OgAABAgQI3Cnw1UlemeTmorN4nOe/tRfb8TzDtxdedFx4BIGrk7wgyXckGT/M8FBvDOyAHbADdsAO3HkmjrPxp5P88faZWfFF+E6NcaaPc3dPt7cWB4CdJvxZ88gKR452wA7YATuw1x0Yr/Wz59s5ScYT++y1uM9jZQfsgB2wA3Zg83Zg/OrgN+/59N/+xPF8wYbJwA7YATtgB+xA3x0YP4e379v4Nb5/FgKEIDtgB+yAHbADLXfgxq0fJrzfvk//7Tucl2Q8u5/0x8AO2AE7YAfsQJ8dGA/9n3/Qw3/nfi8UAAQgO2AH7IAdsAOtduBndg7xqX++yuBbDV5K75PSzcqs7IAdqN6B10099O9+/5OSVLxOQPVfUj3/cOyAHbADdsAO3LUDv5PkHnc/wCv+exT8dY8EeCTADtgBO2AH7MBG7sBrk4wv2Ge7Xeg5AjZy8BLwXQmYBQs7YAeO0g6MH/i7YLZT/8sKPy7J+PWCowTs72redsAO2AE7sGk78IkkT/qyM3r2/3na1ov8jIcbbhMEBCE7YAfsgB2wA4e6A+P5/S9NMs7ixW6P3X7xgk1LRfqR1O2AHbADduBE24EvJnlHkkcvduqvuPAIApcn+ZwUeKgp8ERbbn8f/4dtB+yAHTh2Bz6b5PeTPGbF+bsx7zo1yXOT/GGSzwgDwoAdsAN2wA7YgQPtwKeTvCXJc5KMp+dvdRu/jnBukmcl+cUkl229KtF4WcLrvDGwA3bADtgBO3DnDly7fTaOM/Kl22fmo+b+lb5WaUKzBAgQIECAAAECBAgQIECAAAECBAgQIECI9LDVAAABiUlEQVSAAAECBAgQIECAAAECBAgQIECAAAECBAgQIECAAAECBAgQIECAAAECBAgQIECAAAECBAgQIECAAAECBAgQIECAAAECBAgQIECAAAECBAgQIECAAAECBAgQIECAAAECBAgQIECAAAECBAgQIECAAAECBAgQIECAAAECBAgQIECAAAECBAgQIECAAAECBAgQIECAAAECBAgQIECAAAECBAgQIECAAAECBAgQIECAAAECBAgQIECAAAECBAgQIECAAAECBAgQIECAAAECBAgQIECAAAECBAgQIECAAAECBAgQIECAAAECBAgQIECAAAECBAgQIECAAAECBAgQIECAAAECBAgQIECAAAECBAgQIECAAAECBAgQIECAAAECBAgQIECAAAECBAgQIECAAAECBAgQIECAAAECBAgQIECAAAECBAgQIECAAAECBAgQIECAAAECBAgQIECAAAECBAgQIECAAAECBAgQIECAAAECBAgQIECAAAECBAgQIECAAAECBAgQaCPwfw/MqKX1pYUHAAAAAElFTkSuQmCC;" vertex="1" parent="1">
          <mxGeometry x="1254" y="70" width="62" height="52" as="geometry" />
        </mxCell>
        <mxCell id="e_uapiZ9qvVB3w5fOgVw-15" value="" style="endArrow=classic;html=1;rounded=0;exitX=1;exitY=0.5;exitDx=0;exitDy=0;dashed=1;flowAnimation=1;strokeColor=#FF9933;strokeWidth=2;entryX=0.993;entryY=0.231;entryDx=0;entryDy=0;entryPerimeter=0;" edge="1" parent="1" source="e_uapiZ9qvVB3w5fOgVw-14">
          <mxGeometry width="50" height="50" relative="1" as="geometry">
            <mxPoint x="1368" y="150" as="sourcePoint" />
            <mxPoint x="1277.1600000000003" y="193.0329999999999" as="targetPoint" />
            <Array as="points">
              <mxPoint x="1350" y="96" />
              <mxPoint x="1350" y="194" />
            </Array>
          </mxGeometry>
        </mxCell>
        <mxCell id="e_uapiZ9qvVB3w5fOgVw-16" value="" style="endArrow=none;dashed=1;html=1;rounded=0;flowAnimation=1;strokeWidth=2;strokeColor=#00FF00;" edge="1" parent="1">
          <mxGeometry width="50" height="50" relative="1" as="geometry">
            <mxPoint x="1370" y="764.76" as="sourcePoint" />
            <mxPoint x="1450" y="764.76" as="targetPoint" />
          </mxGeometry>
        </mxCell>
        <mxCell id="e_uapiZ9qvVB3w5fOgVw-17" value="Grafana Calls&amp;nbsp;&lt;span style=&quot;background-color: transparent; color: light-dark(rgb(0, 0, 0), rgb(255, 255, 255));&quot;&gt;(HTTPS)&lt;/span&gt;&lt;span style=&quot;background-color: transparent; color: light-dark(rgb(0, 0, 0), rgb(255, 255, 255));&quot;&gt;:&lt;/span&gt;" style="text;html=1;align=left;verticalAlign=middle;whiteSpace=wrap;rounded=0;fontStyle=0" vertex="1" parent="1">
          <mxGeometry x="1170" y="720" width="170" height="30" as="geometry" />
        </mxCell>
      </root>
    </mxGraphModel>
  </diagram>
</mxfile>
